<?xml version="1.0" standalone="no"?>
<!DOCTYPE svg PUBLIC "-//W3C//DTD SVG 1.1//EN" "http://www.w3.org/Graphics/SVG/1.1/DTD/svg11.dtd" >
<svg xmlns="http://www.w3.org/2000/svg" xmlns:xlink="http://www.w3.org/1999/xlink" version="1.1">
<metadata></metadata>
<defs>
<font id="stanislavstanislav" horiz-adv-x="976" >
<font-face units-per-em="2048" ascent="1638" descent="-410" />
<missing-glyph horiz-adv-x="573" />
<glyph horiz-adv-x="0" />
<glyph horiz-adv-x="682" />
<glyph unicode=" "  horiz-adv-x="573" />
<glyph unicode="&#x09;" horiz-adv-x="573" />
<glyph unicode="&#xa0;" horiz-adv-x="573" />
<glyph unicode="!" horiz-adv-x="483" d="M113 106q0 54 37.5 93t89.5 39t89.5 -39t37.5 -93t-37.5 -92.5t-89.5 -38.5t-89.5 38.5t-37.5 92.5zM117 1311h245l-61 -930h-123z" />
<glyph unicode="&#x22;" horiz-adv-x="649" d="M72 1311h176l-51 -461h-74zM397 1311h176l-51 -461h-73z" />
<glyph unicode="#" horiz-adv-x="892" d="M72 307l18 205h164l25 287h-164l18 205h164l27 307h69l-26 -307h213l26 307h70l-27 -307h164l-18 -205h-164l-25 -287h164l-18 -205h-164l-27 -307h-69l26 307h-213l-26 -307h-70l27 307h-164zM324 512h213l24 287h-213z" />
<glyph unicode="$" horiz-adv-x="960" d="M70 872q0 114 110.5 191.5t282.5 77.5h31l24 170l92 -13l-24 -174q28 -8 69 -24.5t72 -25.5t61 -9q11 0 39 4l-39 -160q-119 94 -215 117l-34 -242q64 -22 109 -41.5t99 -51.5t88 -66.5t57 -85t23 -109.5q0 -121 -120 -190.5t-322 -69.5h-20l-25 -170l-92 12l24 176 q-23 7 -64 20t-66.5 21t-57 14.5t-53.5 6.5q-29 0 -45 -8l8 209q45 -55 126 -96.5t167 -59.5l37 262q-74 26 -127 51t-106 62.5t-81 88.5t-28 113zM254 944q0 -39 49 -67.5t146 -61.5l30 223h-16q-100 0 -154.5 -25.5t-54.5 -68.5zM469 283h4q120 0 189 28.5t69 75.5 q0 41 -56.5 71t-172.5 68z" />
<glyph unicode="%" horiz-adv-x="1429" d="M70 864q0 62 46.5 116t120.5 85t154 31t154.5 -31t121 -85t46.5 -116q0 -93 -99 -162t-223 -69q-80 0 -154 31t-120.5 84.5t-46.5 115.5zM233 70l842 1005l76 -63l-842 -1006zM258 864q0 -69 39 -119.5t94 -50.5t94 50.5t39 119.5t-39 119.5t-94 50.5t-94 -50.5 t-39 -119.5zM713 219q0 62 46.5 116t120.5 85t154 31t154.5 -31t121 -85t46.5 -116q0 -93 -99 -162t-223 -69q-80 0 -154 31t-120.5 84.5t-46.5 115.5zM901 219q0 -69 39 -119.5t94 -50.5t94 50.5t39 119.5t-39 119.5t-94 50.5t-94 -50.5t-39 -119.5z" />
<glyph unicode="&#x26;" horiz-adv-x="1550" d="M57 283q0 98 68.5 163.5t181.5 98.5q-99 24 -155 64.5t-56 92.5q0 70 57 126t153 87t210 31q51 0 96 -5t76 -11t64 -20.5t49 -22t43 -28.5t34 -27.5t33 -30.5l-41 -37q-59 47 -121.5 68.5t-170.5 21.5q-62 0 -119.5 -44t-57.5 -103q0 -70 162 -129v-62 q-98 -17 -159.5 -76t-61.5 -166q0 -63 45 -112.5t112 -75t140 -25.5q123 0 212.5 27.5t139 77.5t72 111t22.5 137q0 39 -6 80q-66 28 -106 28q-39 0 -73.5 -13.5t-55.5 -33t-36.5 -39.5t-21.5 -34l-6 -13l-67 19q1 5 3 14.5t12 37t23.5 52t39 55t56.5 52t77.5 36.5t101.5 15 q52 0 115.5 -28t103.5 -28q39 0 73.5 14t55.5 33.5t36.5 39t21.5 33.5l6 14l67 -19q-1 -5 -3 -14.5t-12 -37t-23.5 -52t-39 -55t-56.5 -52t-77.5 -36.5t-101.5 -15q-17 0 -41 4q4 -40 4 -68q0 -60 -13.5 -116t-50 -114.5t-93 -101t-151.5 -69.5t-216 -27q-287 0 -430.5 84.5 t-143.5 223.5z" />
<glyph unicode="'" horiz-adv-x="360" d="M92 1311h176l-51 -461h-74z" />
<glyph unicode="(" horiz-adv-x="630" d="M98 553q0 90 37 186.5t95 175.5t124 142.5t129 99.5l37 -20q-221 -247 -221 -584t221 -584l-37 -20q-63 36 -129 99.5t-124 142.5t-95 175.5t-37 186.5z" />
<glyph unicode=")" horiz-adv-x="630" d="M98 -31q221 247 221 584t-221 584l37 20q63 -36 129 -99.5t124 -142.5t95 -175.5t37 -186.5t-37 -186.5t-95 -175.5t-124 -142.5t-129 -99.5z" />
<glyph unicode="*" horiz-adv-x="868" d="M82 825l55 168l238 -108l-29 260h176l-28 -260l237 108l55 -168l-256 -53l177 -192l-144 -105l-129 227l-129 -227l-143 105l176 192z" />
<glyph unicode="+" horiz-adv-x="823" d="M74 389v131h270v271h131v-271h270v-131h-270v-270h-131v270h-270z" />
<glyph unicode="," horiz-adv-x="450" d="M61 -242q11 11 27.5 30t44 71t27.5 96q0 25 -16.5 48t-33 49t-16.5 59q0 48 37 87.5t102 39.5q72 0 102 -40t30 -128q0 -49 -28.5 -104.5t-69.5 -99t-82.5 -80.5t-70.5 -57l-28 -20z" />
<glyph unicode="-" horiz-adv-x="823" d="M74 389v131h671v-131h-671z" />
<glyph unicode="." horiz-adv-x="421" d="M82 106q0 54 37.5 93t89.5 39t89.5 -39t37.5 -93t-37.5 -92.5t-89.5 -38.5t-89.5 38.5t-37.5 92.5z" />
<glyph unicode="/" horiz-adv-x="716" d="M41 0l477 1311h154l-477 -1311h-154z" />
<glyph unicode="0" horiz-adv-x="1105" d="M90 461q0 97 40 187t104 154t148.5 102t170.5 38t170.5 -38t148.5 -102t104 -154t40 -187t-40 -187t-104 -154t-148.5 -102t-170.5 -38t-170.5 38t-148.5 102t-104 154t-40 187zM336 461q0 -168 64 -268.5t153 -100.5t153 100.5t64 268.5t-64 268t-153 100t-153 -100 t-64 -268z" />
<glyph unicode="1" horiz-adv-x="487" d="M49 791l313 192v-852q0 -33 13.5 -65.5t26.5 -49.5l14 -16h-322q6 6 15 17.5t23.5 46t14.5 67.5v557q0 33 -24.5 58.5t-48.5 35.5z" />
<glyph unicode="2" horiz-adv-x="921" d="M72 696q48 130 138 190t267 60q324 0 324 -319q0 -58 -30 -119.5t-75 -114t-109.5 -106.5t-122.5 -94t-124 -80h393q33 0 65.5 13.5t49.5 26.5l16 13l-30 -166h-750l12 61q10 5 26.5 15.5t64.5 43.5t92 67.5t97 87t91.5 104t65 115.5t26.5 124q0 111 -44.5 176.5 t-111.5 65.5q-84 0 -132 -53t-48 -152z" />
<glyph unicode="3" horiz-adv-x="983" d="M72 696q48 130 138 190t267 60q168 0 246 -61t78 -217q0 -82 -57 -144.5t-160 -117.5q138 -13 224.5 -74.5t86.5 -171.5q0 -115 -69 -205.5t-183.5 -144.5t-250 -81.5t-281.5 -27.5l-35 70q110 0 207.5 19t181 58.5t132 110t48.5 164.5q0 62 -46 132.5t-107 70.5 q-33 0 -73 -8t-63 -16l-24 -7l-33 61q51 27 82.5 45.5t69 47.5t58.5 57t35.5 67.5t14.5 85.5q0 201 -156 201q-84 0 -132 -53t-48 -152z" />
<glyph unicode="4" horiz-adv-x="999" d="M61 229v136l678 618v-643h183v-111h-183v-98q0 -33 13.5 -65.5t27.5 -49.5l13 -16h-322q6 6 15 17.5t23.5 46t14.5 67.5v98h-463zM199 340h325v301z" />
<glyph unicode="5" horiz-adv-x="903" d="M10 -229q109 0 211 32t182 89t128.5 143.5t48.5 187.5q0 79 -11.5 133.5t-33.5 82.5t-48 39t-61 11q-56 0 -152.5 -32t-142.5 -66l-22 82l79 449h562v-111h-377l-43 -240q73 17 125 17q159 0 258.5 -100t99.5 -250q0 -116 -67.5 -218t-176 -171t-246 -108.5t-278.5 -39.5 z" />
<glyph unicode="6" horiz-adv-x="1122" d="M66 385q0 108 22.5 203.5t58.5 168.5t94 141t114.5 116t136 96.5t142 80.5t148.5 71l25 -45q-241 -153 -356.5 -277t-141.5 -287q98 117 258 117q113 0 199.5 -21t152 -66.5t100 -123.5t34.5 -186q0 -96 -42 -174t-111 -125.5t-153.5 -73t-173.5 -25.5q-101 0 -186 25 t-143 66.5t-99 95t-60 110t-19 113.5zM311 358q21 -148 81 -222.5t173 -74.5q65 0 114.5 31t76 80.5t39 102.5t12.5 106q0 79 -26 148t-82.5 116t-131.5 47q-87 0 -146.5 -49.5t-84.5 -122.5t-25 -162z" />
<glyph unicode="7" horiz-adv-x="944" d="M41 756l31 166h786v-113q-171 -271 -252.5 -522.5t-81.5 -569.5h-260q0 277 111.5 555t300.5 537h-504q-33 0 -65.5 -13.5t-48.5 -26.5z" />
<glyph unicode="8" horiz-adv-x="1024" d="M82 14q0 47 16.5 90t41.5 75.5t62 63t71.5 51.5t76.5 42q-233 189 -233 321q0 135 111 212t292 77q168 0 254 -72t86 -184q0 -87 -61 -162.5t-150 -130.5q56 -43 88.5 -69t77 -66t68.5 -69.5t41.5 -64t17.5 -65.5q0 -161 -130.5 -247t-346.5 -86q-179 0 -281 85.5 t-102 198.5zM256 23q0 -73 60.5 -140t144.5 -67q111 0 171 46t60 161q0 10 -4 21t-14.5 24t-20 24.5t-28.5 28.5t-32.5 28.5t-38.5 31t-40.5 31t-45 34t-44.5 33.5q-168 -107 -168 -256zM348 711q0 -50 57 -109.5t166 -142.5q103 89 103 235q0 66 -44 116t-136 50 q-65 0 -105.5 -48.5t-40.5 -100.5z" />
<glyph unicode="9" horiz-adv-x="1122" d="M66 549q0 96 41.5 173.5t111 125t153 73t173.5 25.5q101 0 186 -25t143.5 -66t99.5 -94.5t60 -110t19 -113.5q0 -108 -23 -203.5t-58.5 -168.5t-94 -141t-115 -115.5t-136 -96.5t-142 -81t-148.5 -71l-25 45q120 76 200 137t146 129t102 140t50 157q-98 -116 -258 -116 q-113 0 -199 21t-152 66.5t-100 123.5t-34 186zM311 541q0 -79 26 -148.5t82.5 -116.5t131.5 -47q87 0 146.5 49.5t84.5 122.5t25 162q-21 150 -81 223.5t-173 73.5q-65 0 -114.5 -30.5t-76 -80.5t-39 -102.5t-12.5 -105.5z" />
<glyph unicode=":" horiz-adv-x="421" d="M82 106q0 54 37.5 93t89.5 39t89.5 -39t37.5 -93t-37.5 -92.5t-89.5 -38.5t-89.5 38.5t-37.5 92.5zM82 801q0 54 37.5 92.5t89.5 38.5t89.5 -38.5t37.5 -92.5t-37.5 -92.5t-89.5 -38.5t-89.5 38.5t-37.5 92.5z" />
<glyph unicode=";" horiz-adv-x="450" d="M61 -242q11 11 27.5 30t44 71t27.5 96q0 25 -16.5 48t-33 49t-16.5 59q0 48 37 87.5t102 39.5q72 0 102 -40t30 -128q0 -49 -28.5 -104.5t-69.5 -99t-82.5 -80.5t-70.5 -57l-28 -20zM102 801q0 54 37.5 92.5t89.5 38.5t89.5 -38.5t37.5 -92.5t-37.5 -92.5t-89.5 -38.5 t-89.5 38.5t-37.5 92.5z" />
<glyph unicode="&#x3c;" horiz-adv-x="980" d="M92 461l705 491l71 -104l-512 -387l512 -387l-71 -105z" />
<glyph unicode="=" horiz-adv-x="761" d="M74 268v131h610v-131h-610zM74 522v131h610v-131h-610z" />
<glyph unicode="&#x3e;" horiz-adv-x="980" d="M102 74l512 387l-512 387l72 104l705 -491l-705 -492z" />
<glyph unicode="?" horiz-adv-x="866" d="M72 1118q37 77 71 115q96 104 289 104q144 0 248 -97.5t104 -207.5q0 -78 -25 -148t-68 -121.5t-91 -88.5t-102 -62l-31 -231h-123l-18 289q107 19 172 111.5t65 222.5q0 52 -16 104.5t-55 94.5t-93 42q-26 0 -48 -6t-38 -13t-30 -23t-22 -26t-17.5 -32t-12.5 -31.5 t-10.5 -34t-9.5 -30.5zM279 106q0 54 37.5 93t89.5 39t89 -39t37 -93t-37 -92.5t-89 -38.5t-89.5 38.5t-37.5 92.5z" />
<glyph unicode="@" horiz-adv-x="1572" d="M70 319q0 90 22.5 175t75 166.5t131.5 142.5t201 98t274 37q180 0 317.5 -38t222 -107t127 -160.5t42.5 -202.5q0 -104 -26 -187.5t-71 -135.5t-102 -79.5t-121 -27.5q-51 0 -88 12t-60.5 36.5t-35 44t-25.5 52.5q-28 -56 -77 -85t-148 -29q-89 0 -163 86t-74 176 q0 107 77.5 192.5t175.5 85.5q69 0 114 -12t91.5 -34t85.5 -33l8 -281q1 -49 36 -91t75 -42q65 0 86 75.5t21 272.5q0 74 -32 149t-91.5 139t-156 104t-212.5 40q-75 0 -146 -23.5t-132 -70.5t-107 -111.5t-72 -152.5t-26 -189q0 -66 14.5 -135t50 -139.5t88 -125.5 t135 -89.5t183.5 -34.5q159 0 276.5 23.5t227.5 74.5l16 -53q-22 -7 -94 -35t-124 -45.5t-134 -34t-156 -16.5q-173 0 -309 48.5t-220 133.5t-127.5 195.5t-43.5 240.5zM688 309q0 -176 111 -176q25 0 46 12.5t33 30.5t20.5 36.5t11.5 31.5l3 12l-10 168l-5 7.5t-13 16 t-20.5 20.5t-27.5 16.5t-34 7.5q-60 0 -87.5 -46t-27.5 -137z" />
<glyph unicode="A" horiz-adv-x="1386" d="M41 0q51 63 74 131l383 1180h381l387 -1192q10 -31 27.5 -61t29.5 -44l12 -14h-364q39 41 39 96q0 17 -6 35l-43 135h-687l-43 -135q-6 -18 -6 -35q0 -25 10.5 -49t20.5 -35l10 -12h-225zM311 379h613l-267 819h-79z" />
<glyph unicode="B" horiz-adv-x="1118" d="M66 0q6 6 15 17.5t23.5 46t14.5 67.5v1049q0 33 -13.5 65.5t-26.5 48.5l-13 17h362q119 0 212.5 -20t148.5 -50t91 -70t49 -76t13 -71v-61q0 -63 -42 -126t-128 -106q145 -44 223 -127t78 -180v-72q0 -63 -32 -123t-96 -112.5t-174 -84.5t-251 -32h-454zM334 111h174 q91 0 157.5 23t101.5 62.5t51 83t16 93.5v22q0 89 -89 178t-190 89h-221v-551zM334 772h160q104 0 174.5 60t70.5 147v12q0 92 -72 150.5t-210 58.5h-123v-428z" />
<glyph unicode="C" horiz-adv-x="1239" d="M45 594v123q0 112 51 224t136 199t204.5 141t247.5 54q99 0 179 -16.5t133.5 -33.5t88.5 -17q16 0 52 12l-15 -221q-63 71 -186.5 117.5t-251.5 46.5q-79 0 -143.5 -36.5t-106.5 -94.5t-70.5 -133t-40.5 -148.5t-12 -144.5v-21q0 -70 12 -143t40.5 -148t70 -133.5 t106.5 -95.5t144 -37q323 0 416 184l92 -51q-46 -103 -176.5 -174.5t-331.5 -71.5q-128 0 -247.5 54.5t-204.5 141.5t-136 199t-51 224z" />
<glyph unicode="D" horiz-adv-x="1265" d="M66 0q6 6 15 17.5t23.5 46t14.5 67.5v1049q0 33 -13.5 65.5t-26.5 48.5l-13 17h559q128 0 239.5 -45t186 -117.5t117 -164t42.5 -185.5v-287q0 -94 -42.5 -185.5t-117 -164t-186 -117.5t-239.5 -45h-559zM365 113h124q455 0 455 399v287q0 399 -455 399h-124v-1085z" />
<glyph unicode="E" d="M66 0q6 6 15 17.5t23.5 46t14.5 67.5v1049q0 33 -13.5 65.5t-26.5 48.5l-13 17h739l31 -166q-6 6 -17.5 15t-46 23.5t-67.5 14.5h-340v-383h215q33 0 65.5 13.5t48.5 26.5l17 13v-219q-6 6 -17.5 15t-45.5 23.5t-68 14.5h-215v-589h421q33 0 66 13.5t50 26.5l16 13v-166 h-852z" />
<glyph unicode="F" horiz-adv-x="950" d="M66 0q6 6 15 17.5t23.5 46t14.5 67.5v1049q0 33 -13.5 65.5t-26.5 48.5l-13 17h821l31 -166q-7 6 -18.5 15t-46 23.5t-67.5 14.5h-421v-383h297q33 0 65.5 13.5t48.5 26.5l17 13v-219q-6 6 -17.5 15t-45.5 23.5t-68 14.5h-297v-571q0 -33 13.5 -65.5t26.5 -49.5l13 -16 h-352z" />
<glyph unicode="G" horiz-adv-x="1273" d="M43 594v123q0 113 48 224.5t129 198.5t197.5 141t244.5 54q78 0 142.5 -10.5t99 -23t72 -23t66.5 -10.5q16 0 52 12l-15 -221q-65 72 -178 118t-239 46q-79 0 -141.5 -36.5t-101.5 -94t-64.5 -133.5t-35.5 -148.5t-10 -144.5v-21q0 -71 10 -143t35.5 -148t64.5 -134 t101.5 -95t141.5 -37t153 11t111 30v252q0 33 -13.5 65.5t-26.5 49.5l-14 16h353q-6 -6 -15 -17.5t-24 -46t-15 -67.5v-381h-245v8q-97 -33 -264 -33q-128 0 -244.5 54t-197.5 141.5t-129 199t-48 224.5z" />
<glyph unicode="H" horiz-adv-x="1284" d="M66 0q6 6 15 17.5t23.5 46t14.5 67.5v1049q0 33 -13.5 65.5t-26.5 48.5l-13 17h321q-6 -6 -15 -17.5t-23.5 -46t-14.5 -67.5v-443h610v443q0 33 -13 65.5t-27 48.5l-13 17h321q-6 -6 -15 -17.5t-23.5 -46t-14.5 -67.5v-1049q0 -33 13.5 -65.5t26.5 -49.5l13 -16h-321 q6 6 15 17.5t23.5 46t14.5 67.5v494h-610v-494q0 -33 13 -65.5t27 -49.5l13 -16h-321z" />
<glyph unicode="I" horiz-adv-x="458" d="M66 0q6 6 15 17.5t23.5 46t14.5 67.5v1049q0 33 -13.5 65.5t-26.5 48.5l-13 17h321q-6 -6 -15 -17.5t-23.5 -46t-14.5 -67.5v-1049q0 -33 13 -65.5t27 -49.5l13 -16h-321z" />
<glyph unicode="J" horiz-adv-x="624" d="M4 -180q88 17 145.5 55.5t90.5 107.5t46 158t13 221v818q0 33 -13.5 65.5t-26.5 48.5l-13 17h321q-6 -6 -15 -17.5t-23.5 -46t-14.5 -67.5v-740q0 -349 -113.5 -524t-380.5 -201z" />
<glyph unicode="K" horiz-adv-x="1263" d="M66 0q6 6 15 17.5t23.5 46t14.5 67.5v1049q0 33 -13.5 65.5t-26.5 48.5l-13 17h321q-6 -6 -15 -17.5t-23.5 -46t-14.5 -67.5v-463h39l436 467q37 42 37 92l-4 35h237q-92 -74 -145 -131l-434 -467l557 -596q26 -28 65 -57t64 -44l26 -16h-415q2 17 2 37q0 67 -27 94 l-438 469v-469q0 -33 13 -65.5t27 -49.5l13 -16h-321z" />
<glyph unicode="L" horiz-adv-x="997" d="M66 0q6 6 15 17.5t23.5 46t14.5 67.5v1049q0 33 -13.5 65.5t-26.5 48.5l-13 17h352q-6 -6 -15 -17.5t-23.5 -46t-14.5 -67.5v-1067h452q33 0 65.5 13.5t49.5 26.5l16 13l-30 -166h-852z" />
<glyph unicode="M" horiz-adv-x="1708" d="M45 0q43 57 53 131l166 1180h207l387 -1067l389 1067h187l165 -1180q4 -32 17.5 -65t25.5 -50l11 -16h-355l15.5 15.5t25 40t15.5 59.5q0 3 -1 8t-1 8l-115 821l-346 -952h-205l-354 975l-119 -844q0 -3 -1 -8t-1 -8q0 -29 13.5 -58t27.5 -43l14 -14h-221z" />
<glyph unicode="N" horiz-adv-x="1273" d="M66 0q6 6 15 17.5t23.5 46t14.5 67.5v1049q0 33 -13.5 65.5t-26.5 48.5l-13 17h213l665 -971v840q0 33 -13 65.5t-27 48.5l-13 17h321q-6 -6 -15 -17.5t-23.5 -46t-14.5 -67.5v-1180h-141l-684 999v-868q0 -33 13 -65.5t27 -49.5l13 -16h-321z" />
<glyph unicode="O" horiz-adv-x="1261" d="M51 512v287q0 113 41 211.5t115.5 170.5t183.5 113t238 41q172 0 304.5 -71t202.5 -192.5t70 -272.5v-287q0 -232 -159 -384.5t-418 -152.5t-418.5 152.5t-159.5 384.5zM317 563q0 -75 6 -135t25.5 -126.5t52 -111t91 -73.5t137.5 -29q66 0 118 19t85 55t55 78.5 t33.5 100t15.5 108.5t4 114v185q0 62 -4 112.5t-15.5 108t-33.5 100.5t-55 79.5t-85 55.5t-118 19q-79 0 -137.5 -29t-91 -72.5t-52 -110t-25.5 -127t-6 -136.5v-185z" />
<glyph unicode="P" horiz-adv-x="1034" d="M66 0q6 6 15 17.5t23.5 46t14.5 67.5v1049q0 33 -13.5 65.5t-26.5 48.5l-13 17h393q114 0 204.5 -17.5t148.5 -46.5t96.5 -69.5t54.5 -84.5t16 -94v-143q0 -69 -29.5 -126t-90.5 -103.5t-166.5 -72.5t-246.5 -26h-112v-397q0 -33 13 -65.5t27 -49.5l13 -16h-321zM334 639 h190q100 0 171 77.5t71 168.5v53q0 97 -71 179.5t-171 82.5h-190v-561z" />
<glyph unicode="Q" horiz-adv-x="1337" d="M51 512v287q0 113 41 211.5t115.5 170.5t183.5 113t238 41q172 0 304.5 -71t202.5 -192.5t70 -272.5v-287q0 -179 -98.5 -315t-269.5 -191q98 -117 230.5 -194.5t256.5 -98.5v-61q-95 0 -197.5 17.5t-209 54t-203 103t-158.5 153.5q-230 21 -368 169t-138 363zM317 563 q0 -75 6 -135t25.5 -126.5t52 -111t91 -73.5t137.5 -29q66 0 118 19t85 55t55 78.5t33.5 100t15.5 108.5t4 114v185q0 62 -4 112.5t-15.5 108t-33.5 100.5t-55 79.5t-85 55.5t-118 19q-79 0 -137.5 -29t-91 -72.5t-52 -110t-25.5 -127t-6 -136.5v-185z" />
<glyph unicode="R" horiz-adv-x="1204" d="M66 0q6 6 15 17.5t23.5 46t14.5 67.5v1049q0 33 -13.5 65.5t-26.5 48.5l-13 17h434q141 0 247.5 -29t166 -77.5t88 -105.5t28.5 -120v-61q0 -98 -63 -168.5t-195 -106.5l250 -512q16 -32 48 -64.5t56 -49.5l25 -17h-356v10q0 76 -25 121h2l-235 479h-203v-479 q0 -33 13 -65.5t27 -49.5l13 -16h-321zM334 721h231q100 0 163 67.5t63 157.5v12q0 97 -63 169.5t-163 72.5h-231v-479z" />
<glyph unicode="S" horiz-adv-x="1040" d="M63 983q0 157 124 254.5t323 97.5q47 0 85.5 -3.5t64 -10.5t40.5 -12.5t31 -13.5t19 -9q38 -14 63 -14q27 0 64 22l-11 -221q-51 41 -75.5 58.5t-72 44t-97 37t-111.5 10.5q-123 0 -192.5 -51.5t-69.5 -116.5q0 -36 27 -70t81 -64.5t117 -57t152 -56.5 q165 -56 266.5 -175.5t101.5 -266.5q0 -181 -118.5 -285.5t-354.5 -104.5q-78 0 -186.5 28t-143.5 28q-58 0 -112 -54l20 279q62 -73 183.5 -120.5t238.5 -47.5q132 0 210.5 62t78.5 143q0 75 -89.5 146.5t-252.5 127.5q-172 59 -288 171.5t-116 244.5z" />
<glyph unicode="T" horiz-adv-x="1204" d="M20 1145l31 166h1096l31 -166q-6 6 -17.5 15t-46 23.5t-67.5 14.5h-340v-1067q0 -33 13.5 -65.5t26.5 -49.5l13 -16h-322q6 6 15 17.5t24 46t15 67.5v1067h-340q-33 0 -66 -13t-50 -27z" />
<glyph unicode="U" horiz-adv-x="1208" d="M45 1311h373q-6 -6 -15 -17.5t-23.5 -46t-14.5 -67.5v-617q0 -62 4 -112.5t15.5 -108t33.5 -100.5t55 -79.5t85 -55.5t118 -19t118 19t85 55t55 78.5t33.5 100t15.5 108.5t4 114v617q0 33 -13.5 65.5t-26.5 48.5l-13 17h219q-6 -6 -15 -17.5t-23.5 -46t-14.5 -67.5v-668 q0 -117 -27 -212t-83.5 -169.5t-152 -115t-223.5 -40.5q-129 0 -228.5 41t-162 114t-94 170t-31.5 212v668q0 33 -13 65.5t-27 48.5z" />
<glyph unicode="V" horiz-adv-x="1306" d="M23 1311h364q-39 -42 -39 -97q0 -16 6 -34l346 -1067h39l346 1067q7 21 7 34q0 25 -10 49.5t-20 36.5l-11 11h225q-51 -63 -74 -131l-383 -1180h-340l-387 1192q-12 30 -29 60t-29 44z" />
<glyph unicode="W" horiz-adv-x="1875" d="M23 1311h364q-39 -42 -39 -97q0 -16 6 -34l344 -1067l160 491l-229 707h258l98 -310l100 310h117l-158 -490l228 -708l346 1067q6 18 6 34q0 25 -10 49.5t-20 36.5l-11 11h266q-10 -7 -26 -19.5t-47 -47t-41 -64.5l-383 -1180h-299l-138 424l-137 -424h-299l-387 1192 q-10 31 -27.5 61t-29.5 44z" />
<glyph unicode="X" horiz-adv-x="1191" d="M45 1311h367q-17 -17 -17 -66q0 -34 31 -82l176 -307l178 307q29 45 29 82q0 22 -4 38.5t-8 22.5l-4 5h243q-7 -4 -19 -12.5t-38 -34.5t-41 -52l-270 -469l372 -645q16 -26 40.5 -50.5t41.5 -35.5l17 -12h-367q16 17 16 66q0 37 -28 81l-219 377l-217 -377 q-31 -48 -31 -81q0 -22 4 -38.5t8 -21.5l4 -6h-243q73 53 110 119l301 518l-321 555q-16 28 -44 58t-48 46z" />
<glyph unicode="Y" horiz-adv-x="1148" d="M20 1311h367q-16 -17 -16 -66q0 -28 30 -82l236 -399l229 399q29 56 29 82q0 22 -4 38.5t-8 22.5l-4 5h243q-7 -4 -19 -12.5t-38 -34.5t-41 -52l-311 -544v-537q0 -33 13.5 -65.5t26.5 -49.5l13 -16h-322q6 6 15 17.5t24 46t15 67.5v438l-367 623q-16 28 -44 58t-47 46z " />
<glyph unicode="Z" horiz-adv-x="1089" d="M47 0l637 1198h-444q-33 0 -65.5 -13t-48.5 -27l-17 -13l30 166h883l-639 -1198h518q33 0 65.5 13.5t49.5 26.5l16 13l-31 -166h-954z" />
<glyph unicode="[" horiz-adv-x="501" d="M113 -61v1433h276v-92h-123v-1249h123v-92h-276z" />
<glyph unicode="\" horiz-adv-x="716" d="M41 1311h154l477 -1311h-154z" />
<glyph unicode="]" horiz-adv-x="501" d="M113 31h123v1249h-123v92h276v-1433h-276v92z" />
<glyph unicode="^" horiz-adv-x="806" d="M84 942l315 295l312 -295l-29 -61l-283 184l-286 -184z" />
<glyph unicode="_" horiz-adv-x="827" d="M0 0h827v-98h-827v98z" />
<glyph unicode="`" horiz-adv-x="581" d="M72 1229l143 123l295 -353l-66 -41z" />
<glyph unicode="a" horiz-adv-x="1134" d="M41 0q43 40 63 106l267 816h381l264 -811q9 -29 25.5 -57t28.5 -41l13 -13h-364q41 37 41 88q0 21 -4 31l-80 243h-371l-80 -243q-4 -10 -4 -29q0 -23 11 -45.5t22 -33.5l12 -11h-225zM342 475h297l-109 334h-79z" />
<glyph unicode="b" horiz-adv-x="1030" d="M63 0q6 6 15 17.5t24 46t15 67.5v660q0 33 -13.5 65.5t-27.5 49.5l-13 16h308q119 0 212.5 -13t153.5 -35.5t99 -54t55 -65.5t16 -74q0 -117 -129 -180q207 -66 207 -217q0 -147 -127.5 -215t-394.5 -68h-400zM332 111h119q157 0 222.5 37t65.5 94q0 86 -68 139t-173 53 h-166v-323zM332 545h104q75 0 126.5 9.5t85.5 37t34 72.5q0 68 -68.5 107.5t-214.5 39.5h-67v-266z" />
<glyph unicode="c" horiz-adv-x="1114" d="M43 471q0 221 146.5 348t431.5 127q99 0 164 -17t103 -33.5t73 -16.5q15 0 51 12l-15 -221q-147 164 -376 164q-312 0 -312 -363q0 -177 82 -280t230 -103q107 0 177.5 23t107.5 60t69 101l92 -51q-18 -41 -40 -73.5t-58.5 -66t-82.5 -56t-114 -36.5t-151 -14 q-282 0 -430 123.5t-148 372.5z" />
<glyph unicode="d" horiz-adv-x="1148" d="M63 0q6 6 15 17.5t24 46t15 67.5v660q0 33 -13.5 65.5t-27.5 49.5l-13 16h437q100 0 189 -17t166 -53.5t132.5 -89t87 -128t31.5 -165.5q0 -119 -47 -210.5t-130.5 -147t-191.5 -83.5t-237 -28h-437zM342 113h104q199 0 296.5 86.5t97.5 271.5q0 169 -101.5 253.5 t-292.5 84.5h-104v-696z" />
<glyph unicode="e" d="M63 0q6 6 15 17.5t24 46t15 67.5v660q0 33 -13.5 65.5t-27.5 49.5l-13 16h740l31 -166q-7 6 -18.5 15t-46 23.5t-67.5 14.5h-340v-188h216q33 0 65.5 13.5t48.5 26.5l17 13v-219q-6 6 -17.5 15t-45.5 23.5t-68 14.5h-216v-395h422q33 0 65.5 13.5t48.5 26.5l17 13v-166 h-852z" />
<glyph unicode="f" horiz-adv-x="964" d="M63 0q6 6 15 17.5t24 46t15 67.5v660q0 33 -13.5 65.5t-27.5 49.5l-13 16h822l30 -166q-6 6 -17.5 15t-46 23.5t-67.5 14.5h-422v-188h297q33 0 66 13.5t49 26.5l17 13v-219q-6 6 -17.5 15t-46 23.5t-68.5 14.5h-297v-377q0 -33 13.5 -65.5t26.5 -49.5l14 -16h-353z" />
<glyph unicode="g" horiz-adv-x="1212" d="M43 465q0 103 33.5 188.5t99.5 152t174.5 103.5t249.5 37q99 0 174 -17t123.5 -33.5t83.5 -16.5q15 0 51 12l-14 -221q-65 72 -178.5 118t-239.5 46q-131 0 -211 -98t-80 -265q0 -174 78.5 -278.5t212.5 -104.5q79 0 153 11t111 30v129q0 33 -13 65.5t-27 48.5l-13 17 h352q-6 -6 -15 -17.5t-23.5 -46t-14.5 -67.5v-258h-246v8q-97 -33 -264 -33q-143 0 -251.5 36.5t-174.5 103.5t-98.5 154.5t-32.5 195.5z" />
<glyph unicode="h" horiz-adv-x="1280" d="M63 0q6 6 15 17.5t24 46t15 67.5v660q0 33 -13.5 65.5t-27.5 49.5l-13 16h322q-6 -6 -15 -17.5t-23.5 -46t-14.5 -67.5v-248h610v248q0 33 -13 65.5t-27 49.5l-13 16h321q-6 -6 -15 -17.5t-23.5 -46t-14.5 -67.5v-660q0 -33 13.5 -65.5t26.5 -49.5l13 -16h-321 q6 6 15 17.5t23.5 46t14.5 67.5v299h-610v-299q0 -33 13 -65.5t27 -49.5l13 -16h-322z" />
<glyph unicode="i" horiz-adv-x="454" d="M63 0q6 6 15 17.5t24 46t15 67.5v660q0 33 -13.5 65.5t-27.5 49.5l-13 16h322q-6 -6 -15 -17.5t-23.5 -46t-14.5 -67.5v-660q0 -33 13 -65.5t27 -49.5l13 -16h-322z" />
<glyph unicode="j" horiz-adv-x="622" d="M4 -180q88 17 145.5 55.5t90.5 107.5t46 158t13 221v429q0 33 -13.5 65.5t-26.5 49.5l-13 16h321q-6 -6 -15 -17.5t-23.5 -46t-14.5 -67.5v-351q0 -349 -113.5 -524t-380.5 -201z" />
<glyph unicode="k" horiz-adv-x="1214" d="M63 0q6 6 15 17.5t24 46t15 67.5v660q0 33 -13.5 65.5t-27.5 49.5l-13 16h322q-6 -6 -15 -17.5t-23.5 -46t-14.5 -67.5v-209h53l299 225q66 52 66 84l-2 31h253q-127 -92 -180 -131l-354 -267l696 -524h-415q2 11 2 25q0 68 -48 104l-370 281v-279q0 -33 13 -65.5 t27 -49.5l13 -16h-322z" />
<glyph unicode="l" horiz-adv-x="995" d="M63 0q6 6 15 17.5t24 46t15 67.5v660q0 33 -13.5 65.5t-27.5 49.5l-13 16h353q-6 -6 -15 -17.5t-24 -46t-15 -67.5v-678h453q33 0 65.5 13.5t49.5 26.5l16 13l-31 -166h-852z" />
<glyph unicode="m" horiz-adv-x="1533" d="M43 0q39 49 51 117l158 805h272l246 -678l248 678h256l156 -805q5 -30 17.5 -59.5t22.5 -43.5l9 -14h-355q6 5 15.5 15t25 39t15.5 57q0 12 -2 20l-115 584l-260 -715h-205l-268 739l-117 -614q-2 -6 -2 -19q0 -27 13.5 -53.5t27.5 -39.5l14 -13h-223z" />
<glyph unicode="n" horiz-adv-x="1269" d="M63 0q6 6 15 17.5t24 46t15 67.5v660q0 33 -13.5 65.5t-27.5 49.5l-13 16h179l700 -715v584q0 33 -13 65.5t-27 49.5l-13 16h321q-6 -6 -15 -17.5t-23.5 -46t-14.5 -67.5v-791h-184l-641 653v-522q0 -33 13 -65.5t27 -49.5l13 -16h-322z" />
<glyph unicode="o" horiz-adv-x="1243" d="M43 461q0 85 18 155.5t60.5 132.5t107.5 105t164.5 67.5t227.5 24.5t227.5 -24.5t164.5 -67.5t107 -105t60 -132.5t18 -155.5q0 -107 -29.5 -191.5t-94.5 -152.5t-179.5 -105t-273.5 -37q-128 0 -227.5 24.5t-164.5 67.5t-107.5 105.5t-60.5 133t-18 155.5zM309 461 q0 -56 8 -106t29 -100t55 -86t90.5 -58.5t129.5 -22.5t129.5 22.5t90 58t55 86t29 100t7.5 106.5t-7.5 106.5t-29 100t-55 86t-90 58t-129.5 22.5t-129.5 -22.5t-90.5 -58.5t-55 -86t-29 -100t-8 -106z" />
<glyph unicode="p" horiz-adv-x="980" d="M63 0q6 6 15 17.5t24 46t15 67.5v660q0 33 -13.5 65.5t-27.5 49.5l-13 16h435q113 0 195.5 -16t128 -40t72.5 -60.5t34.5 -69t7.5 -74.5q0 -40 -8.5 -74t-35.5 -70.5t-71 -61.5t-120.5 -41t-178.5 -16h-190v-268q0 -33 13 -65.5t27 -49.5l13 -16h-322zM332 510h149 q125 0 183.5 43t58.5 109q0 64 -61.5 106.5t-180.5 42.5h-149v-301z" />
<glyph unicode="q" horiz-adv-x="1323" d="M43 461q0 85 18 155.5t60.5 132.5t107.5 105t164.5 67.5t227.5 24.5t227.5 -24.5t164.5 -67.5t107 -105t60 -132.5t18 -155.5q0 -381 -360 -463q98 -113 228.5 -188.5t250.5 -96.5v-61q-95 0 -197.5 17.5t-209 53.5t-203 102t-158.5 152q-506 31 -506 484zM309 461 q0 -56 8 -106t29 -100t55 -86t90.5 -58.5t129.5 -22.5t129.5 22.5t90 58t55 86t29 100t7.5 106.5t-7.5 106.5t-29 100t-55 86t-90 58t-129.5 22.5t-129.5 -22.5t-90.5 -58.5t-55 -86t-29 -100t-8 -106z" />
<glyph unicode="r" horiz-adv-x="1101" d="M63 0q6 6 15 17.5t24 46t15 67.5v660q0 33 -13.5 65.5t-27.5 49.5l-13 16h435q113 0 195.5 -16t128 -40t72.5 -60.5t34.5 -69t7.5 -74.5q0 -191 -213 -242l190 -287q20 -30 53.5 -63.5t57.5 -51.5l23 -18h-357v16q0 77 -26 115l-179 268h-153v-268q0 -33 13 -65.5 t27 -49.5l13 -16h-322zM332 510h149q125 0 183.5 43t58.5 109q0 64 -61.5 106.5t-180.5 42.5h-149v-301z" />
<glyph unicode="s" horiz-adv-x="960" d="M61 -8l21 264q61 -72 177 -120t214 -48q119 0 188.5 29t69.5 76q0 32 -36.5 58.5t-94.5 47.5t-128.5 43t-141.5 51.5t-129 66t-94.5 92.5t-36.5 126q0 114 110.5 191t282.5 77q51 0 91 -6.5t57 -13t37 -17.5t24 -12q38 -14 63 -14q27 0 64 22l-11 -190q-82 65 -155 97 t-170 32q-100 0 -154.5 -25.5t-54.5 -68.5q0 -28 28.5 -52.5t75 -42.5t106 -39.5t121 -42t121 -52.5t106 -69t75 -93t28.5 -123q0 -121 -120 -191t-322 -70q-65 0 -163.5 28t-135.5 28q-55 0 -113 -39z" />
<glyph unicode="t" horiz-adv-x="1138" d="M35 756l31 166h993l31 -166q-7 6 -18.5 15t-46 23.5t-67.5 14.5h-288v-678q0 -33 13 -65.5t27 -49.5l13 -16h-322q6 6 15 17.5t24 46t15 67.5v678h-289q-33 0 -65.5 -13.5t-48.5 -26.5z" />
<glyph unicode="u" horiz-adv-x="1118" d="M41 922h373q-6 -6 -15 -17.5t-24 -46t-15 -67.5v-228q0 -59 1 -96.5t4.5 -87.5t11.5 -82t20.5 -69t32.5 -59.5t48 -42.5t66.5 -29t86.5 -9q53 0 94 13t69.5 33.5t48.5 56t31 71.5t17.5 89.5t8 99.5t1.5 112v228q0 33 -13.5 65.5t-26.5 49.5l-13 16h219q-6 -6 -15 -17.5 t-23.5 -46t-14.5 -67.5v-279q0 -96 -12 -173t-43.5 -146.5t-81 -116t-127.5 -74t-181 -27.5q-128 0 -222 40.5t-148 115t-79.5 169t-25.5 212.5v279q0 33 -13 65.5t-27 49.5z" />
<glyph unicode="v" horiz-adv-x="1083" d="M33 922h364q-41 -37 -41 -88q0 -21 4 -31l226 -690h39l225 690q4 10 4 28q0 23 -11 45.5t-23 33.5l-11 12h225q-43 -41 -63 -107l-266 -815h-340l-265 811q-9 29 -25.5 57t-28.5 41z" />
<glyph unicode="w" horiz-adv-x="1519" d="M35 922h354q-6 -5 -15 -15t-24.5 -39t-15.5 -57q0 -12 2 -20l115 -584l260 715h204l269 -740l116 615q3 9 3 18q0 27 -14 54t-28 40l-14 13h223q-39 -49 -51 -117l-157 -805h-273l-246 678l-247 -678h-256l-156 805q-5 30 -17.5 59.5t-22.5 43.5z" />
<glyph unicode="x" horiz-adv-x="1087" d="M53 0q95 62 142 119l251 313l-258 371q-20 28 -47.5 57.5t-44.5 45.5l-18 16h366q-16 -17 -16 -66q0 -39 31 -82l123 -176l141 176q29 39 29 82q0 22 -4 38.5t-8 21.5l-5 6h275q-82 -40 -129 -99l-244 -307l289 -418q16 -23 40.5 -47.5t41.5 -37.5l16 -13h-367 q17 17 17 66q0 38 -29 81l-141 203l-162 -203q-31 -42 -31 -81q0 -22 4.5 -38.5t8.5 -21.5l4 -6h-275z" />
<glyph unicode="y" horiz-adv-x="1114" d="M33 922h366q-16 -17 -16 -66q0 -39 31 -82l170 -246l196 246q29 39 29 82q0 22 -4 38.5t-8 21.5l-4 6h274q-82 -40 -129 -99l-297 -372v-320q0 -33 13.5 -65.5t26.5 -49.5l13 -16h-321q6 6 15 17.5t23.5 46t14.5 67.5v266l-283 406q-20 28 -47.5 57.5t-45.5 45.5z" />
<glyph unicode="z" horiz-adv-x="1003" d="M51 0l506 809h-332q-33 0 -65.5 -13.5t-49.5 -26.5l-16 -13l31 166h790l-507 -809h407q33 0 65.5 13.5t49.5 26.5l16 13l-31 -166h-864z" />
<glyph unicode="{" horiz-adv-x="555" d="M59 631v49q34 3 57 41t23 80q0 21 -6 131.5t-6 134.5q0 104 107 184t247 92l13 -32q-43 -10 -107.5 -89.5t-64.5 -134.5q0 -20 5 -130t5 -134q0 -57 -54.5 -101t-130.5 -67q76 -23 130.5 -67t54.5 -101q0 -24 -5 -134t-5 -130q0 -55 64.5 -134t107.5 -89l-13 -33 q-140 12 -247 92.5t-107 184.5q0 24 6 134.5t6 131.5q0 42 -23 80t-57 41z" />
<glyph unicode="|" horiz-adv-x="344" d="M131 -66v1442h82v-1442h-82z" />
<glyph unicode="}" horiz-adv-x="555" d="M59 0q43 10 107.5 89t64.5 134q0 20 -5 130t-5 134q0 57 54.5 101t130.5 67q-76 23 -130.5 67t-54.5 101q0 24 5 134t5 130q0 55 -64.5 134.5t-107.5 89.5l13 32q140 -12 247 -92t107 -184q0 -24 -6 -134.5t-6 -131.5q0 -42 23 -80t57 -41v-49q-34 -3 -57 -41t-23 -80 q0 -21 6 -131.5t6 -134.5q0 -104 -107 -184.5t-247 -92.5z" />
<glyph unicode="~" horiz-adv-x="913" d="M72 367q2 8 6 22.5t23.5 50t46.5 63t79 50t117 22.5q43 0 76.5 -10.5t54.5 -25t41 -29t47.5 -25t61.5 -10.5t63.5 10.5t46 25t28.5 29t17 24.5l4 11l58 -28q-2 -8 -6 -22.5t-24 -50.5t-47 -63.5t-79 -50t-117 -22.5q-43 0 -76.5 10.5t-54.5 25t-40.5 29t-47 25 t-61.5 10.5t-63.5 -10.5t-46.5 -25t-29 -29t-16 -25.5l-5 -10z" />
<glyph unicode="&#xa1;" horiz-adv-x="483" d="M113 975q0 54 37.5 92.5t89.5 38.5t89.5 -38.5t37.5 -92.5t-37.5 -92.5t-89.5 -38.5t-89.5 38.5t-37.5 92.5zM117 -229l61 929h123l61 -929h-245z" />
<glyph unicode="&#xa2;" horiz-adv-x="1114" d="M43 666q0 221 146.5 348t431.5 127h24l25 170l94 -13l-25 -165q61 -9 123 -34.5t99 -25.5q15 0 51 12l-15 -221q-111 125 -272 156l-104 -737q107 0 177.5 23t107.5 60t69 101l92 -51q-18 -41 -40 -73.5t-58.5 -66t-82.5 -56t-114 -36.5t-151 -14h-17l-22 -170l-95 12 l23 164q-467 48 -467 490zM309 666q0 -147 56.5 -243.5t160.5 -127.5l105 733h-10q-312 0 -312 -362z" />
<glyph unicode="&#xa3;" horiz-adv-x="997" d="M66 0q7 6 18 17.5t39 49t49.5 77t39 98.5t17.5 118v377h-137l41 86h96q5 230 86.5 365t227.5 135q65 0 111.5 -17t72 -48.5t38 -63.5t19.5 -76l-57 -12q-4 8 -11.5 28t-11.5 29.5t-14.5 24t-22.5 21.5t-32.5 12.5t-46.5 5.5q-84 0 -114 -84t-30 -295v-25h226l-41 -86 h-185v-327q0 -88 -20 -162t-40 -104l-19 -31h452q33 0 65.5 13.5t49.5 26.5l16 13l-30 -166h-852z" />
<glyph unicode="&#xa4;" horiz-adv-x="1036" d="M70 391l127 127q-88 116 -88 250t86 248l-125 125l71 71l125 -122q114 86 250 86q138 0 252 -86l125 122l72 -71l-125 -125q84 -111 84 -248q0 -136 -86 -250l127 -127l-72 -72l-127 125q-111 -84 -250 -84q-137 0 -248 84l-127 -125zM246 768q0 -113 79 -192.5 t191 -79.5t192 80t80 192t-80 192t-192 80t-191 -79.5t-79 -192.5z" />
<glyph unicode="&#xa5;" horiz-adv-x="1148" d="M20 1311h367q-16 -17 -16 -66q0 -28 30 -82l236 -399l229 399q29 56 29 82q0 22 -4 38.5t-8 22.5l-4 5h243q-7 -4 -19 -12.5t-38 -34.5t-41 -52l-311 -544v-11h286v-77h-286v-107h286v-78h-286v-264q0 -33 13.5 -65.5t26.5 -49.5l13 -16h-322q6 6 15 17.5t24 46t15 67.5 v264h-310v78h310v96l-6 11h-304v77h258l-315 535q-16 28 -44 58t-47 46z" />
<glyph unicode="&#xa6;" horiz-adv-x="344" d="M131 -66v598h82v-598h-82zM131 778v598h82v-598h-82z" />
<glyph unicode="&#xa7;" horiz-adv-x="837" d="M113 643q0 295 190 342q-88 71 -139 139.5t-51 147.5q0 135 84 214t225 79q39 0 72 -8t62.5 -25.5t49 -32t50 -40.5t46.5 -38l-65 -110q-40 55 -96.5 91t-118.5 36q-84 0 -132 -32t-48 -85q0 -36 25.5 -72.5t66.5 -69t90 -66t98.5 -70.5t90.5 -76t66.5 -88t25.5 -101 q0 -295 -191 -342q89 -71 140 -139t51 -147q0 -135 -84.5 -214t-225.5 -79q-39 0 -72 8t-62.5 25t-49 31.5t-50.5 40.5t-46 38l65 111q40 -55 96.5 -91t118.5 -36q84 0 132 31.5t48 84.5q0 36 -25.5 72.5t-66 69t-90 66t-99 70.5t-90 76t-66 88t-25.5 101zM242 723 q0 -66 64 -124t122 -58q65 0 106 51.5t41 105.5q0 66 -64 124.5t-122 58.5q-65 0 -106 -52t-41 -106z" />
<glyph unicode="&#xa8;" horiz-adv-x="731" d="M61 1491q0 44 34 75t81 31t81 -31t34 -75t-34 -75.5t-81 -31.5t-81 31.5t-34 75.5zM440 1491q0 44 34 75t81 31t81 -31t34 -75t-34 -75.5t-81 -31.5t-81 31.5t-34 75.5z" />
<glyph unicode="&#xa9;" horiz-adv-x="1320" d="M72 461q0 160 79 295.5t215 214t296 78.5t295.5 -78.5t213.5 -214t78 -295.5t-78 -295.5t-213.5 -214t-295.5 -78.5t-296 78.5t-215 214t-79 295.5zM190 461q0 -128 63.5 -236.5t172 -171.5t236.5 -63q195 0 333 138t138 333t-138 333t-333 138q-128 0 -236.5 -63 t-172 -171.5t-63.5 -236.5zM324 467q0 133 88 209t258 76q59 0 98 -10t62 -20.5t44 -10.5q11 0 31 8l-8 -133q-88 98 -227 98q-187 0 -187 -217q0 -105 49.5 -167t137.5 -62q64 0 106.5 13.5t65 36t41.5 60.5l55 -31q-30 -67 -90.5 -107t-177.5 -40q-169 0 -257.5 74 t-88.5 223z" />
<glyph unicode="&#xaa;" horiz-adv-x="829" d="M49 655q2 2 12 12.5t19.5 25.5t17.5 40l178 549h263l178 -545q6 -19 14 -34.5t13.5 -22.5t13.5 -15l10 -10h-268l6 5q6 6 10 10.5t9 12t7.5 17t2.5 21.5q0 9 -3 18l-51 158h-239l-54 -158q-2 -6 -2 -18q0 -14 5.5 -26.5t10.5 -18.5t14 -14l9 -7h-176zM53 459v80h701v-80 h-701zM268 983h185l-70 213h-45z" />
<glyph unicode="&#xab;" horiz-adv-x="954" d="M94 461l346 373l52 -39l-166 -334l166 -338l-52 -39zM463 461l346 373l51 -39l-166 -334l166 -338l-51 -39z" />
<glyph unicode="&#xac;" horiz-adv-x="823" d="M74 389v131h671v-315h-165v184h-506z" />
<glyph unicode="&#xad;" horiz-adv-x="823" d="M74 389v131h671v-131h-671z" />
<glyph unicode="&#xae;" horiz-adv-x="1320" d="M72 461q0 160 79 295.5t215 214t296 78.5t295.5 -78.5t213.5 -214t78 -295.5t-78 -295.5t-213.5 -214t-295.5 -78.5t-296 78.5t-215 214t-79 295.5zM190 461q0 -128 63.5 -236.5t172 -171.5t236.5 -63q195 0 333 138t138 333t-138 333t-333 138q-128 0 -236.5 -63 t-172 -171.5t-63.5 -236.5zM393 184q33 33 33 78v397q0 20 -8 39.5t-16 29.5l-9 9h260q68 0 118 -9.5t77.5 -24t44 -36.5t21 -41t4.5 -44q0 -113 -130 -146l115 -172q12 -18 32 -38t34 -31l14 -11h-213v11q0 41 -16 67l-107 162h-92v-162q0 -20 7.5 -39.5t15.5 -28.5l8 -10 h-193zM555 489h88q74 0 109.5 27t35.5 66q0 38 -37 64t-108 26h-88v-183z" />
<glyph unicode="&#xaf;" horiz-adv-x="684" d="M61 1403v92h562v-92h-562z" />
<glyph unicode="&#xb0;" horiz-adv-x="647" d="M82 1118q0 100 71 171t171 71t170.5 -71t70.5 -171t-70.5 -170.5t-170.5 -70.5t-171 70.5t-71 170.5zM178 1118q0 -60 43 -102.5t103 -42.5t102.5 42.5t42.5 102.5t-42.5 103t-102.5 43t-103 -43t-43 -103z" />
<glyph unicode="&#xb1;" horiz-adv-x="823" d="M74 113v131h671v-131h-671zM74 522v131h270v189h131v-189h270v-131h-270v-188h-131v188h-270z" />
<glyph unicode="&#xb2;" horiz-adv-x="706" d="M78 1122q34 92 95 134t183 42q219 0 219 -219q0 -154 -292 -338h243q17 0 31.5 3.5t25 10t17.5 12t13.5 12l7.5 7.5l-23 -131h-512l10 52q13 7 33.5 19.5t74 52.5t94.5 81t74.5 99.5t33.5 113.5q0 72 -29.5 115t-71.5 43q-115 0 -115 -139z" />
<glyph unicode="&#xb3;" horiz-adv-x="700" d="M68 737l94 74q6 -41 51 -73.5t96 -32.5q58 0 95.5 43.5t37.5 101.5q0 62 -36.5 92.5t-139.5 30.5l-12 53q80 18 108.5 42t28.5 81q0 39 -22.5 61.5t-53.5 22.5q-39 0 -68.5 -33t-29.5 -92l-113 31q32 86 86.5 121.5t151.5 35.5q101 0 161 -43t60 -100q0 -75 -112 -131 q167 -29 167 -148q0 -108 -88.5 -171.5t-205.5 -63.5q-87 0 -140 23.5t-116 74.5z" />
<glyph unicode="&#xb4;" horiz-adv-x="581" d="M72 999l295 353l143 -123l-373 -271z" />
<glyph unicode="&#xb7;" horiz-adv-x="421" d="M82 461q0 54 37.5 92.5t89.5 38.5t89.5 -38.5t37.5 -92.5t-37.5 -92.5t-89.5 -38.5t-89.5 38.5t-37.5 92.5z" />
<glyph unicode="&#xb8;" horiz-adv-x="518" d="M61 -328l25 41q50 -29 68.5 -35t54.5 -6q35 0 59.5 25.5t24.5 64.5q0 42 -42 68.5t-128 32.5l129 203h184l-88 -150q67 -14 88 -48t21 -95q0 -65 -61 -122t-144 -57q-46 0 -80.5 11t-53 23.5t-57.5 43.5z" />
<glyph unicode="&#xb9;" horiz-adv-x="430" d="M68 1188l225 139v-577q0 -16 3.5 -30.5t10 -25.5t11.5 -18t11 -13.5t7 -7.5h-238l6 7q6 7 11 14t11 18t9.5 25.5t3.5 30.5v370q0 22 -18 39t-30 21.5t-23 7.5z" />
<glyph unicode="&#xba;" horiz-adv-x="884" d="M49 963q0 71 20 127t63 101.5t119.5 70t182.5 24.5t182.5 -24.5t119.5 -70t63 -101.5t20 -127q0 -324 -385 -324t-385 324zM88 461v80h700v-80h-700zM244 963q0 -40 3.5 -71t15 -66t31 -58t55.5 -38t85 -15q48 0 84 15t56 38t32 57.5t15.5 66t3.5 71.5q0 50 -6.5 88.5 t-25.5 77t-59 60t-100 21.5q-49 0 -85 -15t-55.5 -38t-31 -58t-15 -65.5t-3.5 -70.5z" />
<glyph unicode="&#xbb;" horiz-adv-x="954" d="M94 123l166 334l-166 338l51 39l347 -377l-347 -373zM463 123l166 334l-166 338l51 39l346 -377l-346 -373z" />
<glyph unicode="&#xbc;" horiz-adv-x="1271" d="M70 1188l225 139v-577q0 -16 3.5 -30.5t9.5 -25.5t11 -18t11 -14l6 -7h-238l6 7q6 7 11 14t11 18t9.5 25.5t3.5 30.5v370q0 22 -17 39t-29.5 21.5t-22.5 7.5zM154 61l684 1188h123l-685 -1188h-122zM610 154v96l463 422v-434h121v-84h-121v-62q0 -16 3.5 -30.5t9.5 -24.5 t11 -17t10.5 -13t6.5 -7h-237q1 1 6.5 7t11 13t12 17t10 24.5t3.5 30.5v62h-310zM721 238h199v184z" />
<glyph unicode="&#xbd;" horiz-adv-x="1300" d="M70 1188l225 139v-577q0 -16 3.5 -30.5t9.5 -25.5t11 -18t11 -14l6 -7h-238l6 7q6 7 11 14t11 18t9.5 25.5t3.5 30.5v370q0 22 -17 39t-29.5 21.5t-22.5 7.5zM154 61l684 1188h123l-685 -1188h-122zM684 467q34 92 95.5 134t183.5 42q219 0 219 -219q0 -153 -293 -338 h244q20 0 38.5 6.5t27 12.5t18.5 16l10 10l-23 -131h-512l10 51q13 7 33.5 20t74 53t94.5 81t74.5 99.5t33.5 113.5q0 72 -29.5 114.5t-71.5 42.5q-114 0 -114 -139z" />
<glyph unicode="&#xbe;" horiz-adv-x="1501" d="M68 737l94 74q6 -41 51 -73.5t96 -32.5q58 0 95.5 43.5t37.5 101.5q0 62 -36.5 92.5t-139.5 30.5l-12 53q80 18 108.5 42t28.5 81q0 39 -22.5 61.5t-53.5 22.5q-39 0 -68.5 -33t-29.5 -92l-113 31q32 86 86.5 121.5t151.5 35.5q101 0 161 -43t60 -100q0 -75 -112 -131 q167 -29 167 -148q0 -108 -88.5 -171.5t-205.5 -63.5q-87 0 -140 23.5t-116 74.5zM379 61l684 1188h123l-684 -1188h-123zM836 154v96l462 422v-434h121v-84h-121v-62q0 -16 3.5 -30.5t9.5 -24.5t11 -17t10.5 -13t6.5 -7h-237q1 1 6.5 7t11 13t12 17t10 24.5t3.5 30.5v62 h-309zM946 238h199v184z" />
<glyph unicode="&#xbf;" horiz-adv-x="866" d="M72 76q0 78 25 148t68 121.5t91 88.5t102 62l31 231h123l18 -289q-107 -19 -172 -111.5t-65 -222.5q0 -52 16 -104.5t55 -94.5t93 -42q26 0 48 6t38 13t30 23t22 26t17.5 32t12.5 31.5t10.5 34t9.5 30.5l139 -69q-37 -77 -71 -115q-96 -104 -289 -104q-144 0 -248 97.5 t-104 207.5zM324 1001q0 54 37.5 93t89.5 39t89.5 -39t37.5 -93t-37.5 -92.5t-89.5 -38.5t-89.5 38.5t-37.5 92.5z" />
<glyph unicode="&#xc0;" horiz-adv-x="1386" d="M41 0q51 63 74 131l383 1180h381l387 -1192q10 -31 27.5 -61t29.5 -44l12 -14h-364q39 41 39 96q0 17 -6 35l-43 135h-687l-43 -135q-6 -18 -6 -35q0 -25 10.5 -49t20.5 -35l10 -12h-225zM311 379h613l-267 819h-79zM371 1544l159 94l201 -225l-65 -41z" />
<glyph unicode="&#xc1;" horiz-adv-x="1386" d="M41 0q51 63 74 131l383 1180h381l387 -1192q10 -31 27.5 -61t29.5 -44l12 -14h-364q39 41 39 96q0 17 -6 35l-43 135h-687l-43 -135q-6 -18 -6 -35q0 -25 10.5 -49t20.5 -35l10 -12h-225zM311 379h613l-267 819h-79zM600 1413l201 225l160 -94l-295 -172z" />
<glyph unicode="&#xc2;" horiz-adv-x="1386" d="M41 0q51 63 74 131l383 1180h381l387 -1192q10 -31 27.5 -61t29.5 -44l12 -14h-364q39 41 39 96q0 17 -6 35l-43 135h-687l-43 -135q-6 -18 -6 -35q0 -25 10.5 -49t20.5 -35l10 -12h-225zM311 379h613l-267 819h-79zM412 1434l254 192l249 -192l-28 -62l-221 82l-226 -82 z" />
<glyph unicode="&#xc3;" horiz-adv-x="1386" d="M41 0q51 63 74 131l383 1180h381l387 -1192q10 -31 27.5 -61t29.5 -44l12 -14h-364q39 41 39 96q0 17 -6 35l-43 135h-687l-43 -135q-6 -18 -6 -35q0 -25 10.5 -49t20.5 -35l10 -12h-225zM311 379h613l-267 819h-79zM344 1403q1 8 4.5 22.5t20 50.5t39 63.5t66 50 t97.5 22.5q43 0 76 -16t50.5 -34.5t45.5 -34.5t62 -16q29 0 53 10.5t38 25.5t24 29.5t14 25.5l4 10l49 -29q-1 -8 -4.5 -22.5t-20 -50.5t-39 -63.5t-66 -50t-97.5 -22.5q-43 0 -76 16t-50.5 34.5t-45.5 34.5t-62 16q-29 0 -53 -10.5t-38 -25.5t-24 -29.5t-14 -25.5l-4 -10z " />
<glyph unicode="&#xc4;" horiz-adv-x="1386" d="M41 0q51 63 74 131l383 1180h381l387 -1192q10 -31 27.5 -61t29.5 -44l12 -14h-364q39 41 39 96q0 17 -6 35l-43 135h-687l-43 -135q-6 -18 -6 -35q0 -25 10.5 -49t20.5 -35l10 -12h-225zM311 379h613l-267 819h-79zM360 1491q0 44 34 75t81 31t81 -31t34 -75t-34 -75.5 t-81 -31.5t-81 31.5t-34 75.5zM739 1491q0 44 34 75t81 31t81 -31t34 -75t-34 -75.5t-81 -31.5t-81 31.5t-34 75.5z" />
<glyph unicode="&#xc5;" horiz-adv-x="1386" d="M41 0q51 63 74 131l383 1180h381l387 -1192q10 -31 27.5 -61t29.5 -44l12 -14h-364q39 41 39 96q0 17 -6 35l-43 135h-687l-43 -135q-6 -18 -6 -35q0 -25 10.5 -49t20.5 -35l10 -12h-225zM311 379h613l-267 819h-79zM498 1466q0 61 39.5 98.5t128.5 37.5t128.5 -37.5 t39.5 -98.5q0 -135 -168 -135t-168 135zM588 1466q0 -32 23 -54.5t55 -22.5t54.5 22.5t22.5 54.5t-22.5 55t-54.5 23t-55 -23t-23 -55z" />
<glyph unicode="&#xc6;" horiz-adv-x="1581" d="M41 0q45 43 68 113l389 1198h942v-166q-6 6 -17.5 15t-46 23.5t-67.5 14.5h-340v-383h215q33 0 65.5 13.5t48.5 26.5l17 13v-219q-6 6 -17.5 15t-45.5 23.5t-68 14.5h-215v-589h422q33 0 65.5 13.5t49.5 26.5l16 13v-166h-852q6 6 15 17.5t23.5 46t14.5 67.5v135h-449 l-49 -151q-4 -16 -4 -27q0 -23 11 -45t22 -33l12 -10h-225zM311 379h412v819h-145z" />
<glyph unicode="&#xc7;" horiz-adv-x="1239" d="M45 594v123q0 112 51 224t136 199t204.5 141t247.5 54q99 0 179 -16.5t133.5 -33.5t88.5 -17q16 0 52 12l-15 -221q-63 71 -186.5 117.5t-251.5 46.5q-79 0 -143.5 -36.5t-106.5 -94.5t-70.5 -133t-40.5 -148.5t-12 -144.5v-21q0 -70 12 -143t40.5 -148t70 -133.5 t106.5 -95.5t144 -37q323 0 416 184l92 -51q-40 -90 -146.5 -157.5t-268.5 -83.5l-38 -64q67 -14 88 -48t21 -95q0 -65 -61 -122t-144 -57q-46 0 -80.5 11t-52 23t-57.5 44l24 41q50 -29 68.5 -35t54.5 -6q35 0 59.5 25.5t24.5 64.5q0 42 -42 68.5t-128 32.5l76 120 q-150 24 -276.5 117.5t-197.5 225t-71 268.5z" />
<glyph unicode="&#xc8;" d="M66 0q6 6 15 17.5t23.5 46t14.5 67.5v1049q0 33 -13.5 65.5t-26.5 48.5l-13 17h739l31 -166q-6 6 -17.5 15t-46 23.5t-67.5 14.5h-340v-383h215q33 0 65.5 13.5t48.5 26.5l17 13v-219q-6 6 -17.5 15t-45.5 23.5t-68 14.5h-215v-589h421q33 0 66 13.5t50 26.5l16 13v-166 h-852zM152 1544l159 94l201 -225l-66 -41z" />
<glyph unicode="&#xc9;" d="M66 0q6 6 15 17.5t23.5 46t14.5 67.5v1049q0 33 -13.5 65.5t-26.5 48.5l-13 17h739l31 -166q-6 6 -17.5 15t-46 23.5t-67.5 14.5h-340v-383h215q33 0 65.5 13.5t48.5 26.5l17 13v-219q-6 6 -17.5 15t-45.5 23.5t-68 14.5h-215v-589h421q33 0 66 13.5t50 26.5l16 13v-166 h-852zM381 1413l201 225l159 -94l-295 -172z" />
<glyph unicode="&#xca;" d="M66 0q6 6 15 17.5t23.5 46t14.5 67.5v1049q0 33 -13.5 65.5t-26.5 48.5l-13 17h739l31 -166q-6 6 -17.5 15t-46 23.5t-67.5 14.5h-340v-383h215q33 0 65.5 13.5t48.5 26.5l17 13v-219q-6 6 -17.5 15t-45.5 23.5t-68 14.5h-215v-589h421q33 0 66 13.5t50 26.5l16 13v-166 h-852zM193 1434l253 192l250 -192l-28 -62l-222 82l-225 -82z" />
<glyph unicode="&#xcb;" d="M66 0q6 6 15 17.5t23.5 46t14.5 67.5v1049q0 33 -13.5 65.5t-26.5 48.5l-13 17h739l31 -166q-6 6 -17.5 15t-46 23.5t-67.5 14.5h-340v-383h215q33 0 65.5 13.5t48.5 26.5l17 13v-219q-6 6 -17.5 15t-45.5 23.5t-68 14.5h-215v-589h421q33 0 66 13.5t50 26.5l16 13v-166 h-852zM141 1491q0 44 34 75t81 31t81 -31t34 -75t-34 -75.5t-81 -31.5t-81 31.5t-34 75.5zM520 1491q0 44 34 75t81 31t81 -31t34 -75t-34 -75.5t-81 -31.5t-81 31.5t-34 75.5z" />
<glyph unicode="&#xcc;" horiz-adv-x="458" d="M-61 1544l159 94l201 -225l-66 -41zM66 0q6 6 15 17.5t23.5 46t14.5 67.5v1049q0 33 -13.5 65.5t-26.5 48.5l-13 17h321q-6 -6 -15 -17.5t-23.5 -46t-14.5 -67.5v-1049q0 -33 13 -65.5t27 -49.5l13 -16h-321z" />
<glyph unicode="&#xcd;" horiz-adv-x="458" d="M66 0q6 6 15 17.5t23.5 46t14.5 67.5v1049q0 33 -13.5 65.5t-26.5 48.5l-13 17h321q-6 -6 -15 -17.5t-23.5 -46t-14.5 -67.5v-1049q0 -33 13 -65.5t27 -49.5l13 -16h-321zM168 1413l201 225l159 -94l-295 -172z" />
<glyph unicode="&#xce;" horiz-adv-x="458" d="M-20 1434l253 192l250 -192l-28 -62l-222 82l-225 -82zM66 0q6 6 15 17.5t23.5 46t14.5 67.5v1049q0 33 -13.5 65.5t-26.5 48.5l-13 17h321q-6 -6 -15 -17.5t-23.5 -46t-14.5 -67.5v-1049q0 -33 13 -65.5t27 -49.5l13 -16h-321z" />
<glyph unicode="&#xcf;" horiz-adv-x="458" d="M-72 1491q0 44 34 75t81 31t81 -31t34 -75t-34 -75.5t-81 -31.5t-81 31.5t-34 75.5zM66 0q6 6 15 17.5t23.5 46t14.5 67.5v1049q0 33 -13.5 65.5t-26.5 48.5l-13 17h321q-6 -6 -15 -17.5t-23.5 -46t-14.5 -67.5v-1049q0 -33 13 -65.5t27 -49.5l13 -16h-321zM307 1491 q0 44 34 75t81 31t81 -31t34 -75t-34 -75.5t-81 -31.5t-81 31.5t-34 75.5z" />
<glyph unicode="&#xd0;" horiz-adv-x="1304" d="M51 627v98h107v455q0 33 -13.5 65.5t-26.5 48.5l-14 17h560q128 0 239.5 -45t186 -117.5t117 -164t42.5 -185.5v-287q0 -94 -42.5 -185.5t-117 -164t-186 -117.5t-239.5 -45h-560q6 6 15 17.5t24 46t15 67.5v496h-107zM403 113h125q455 0 455 399v287q0 399 -455 399 h-125v-473h263v-98h-263v-514z" />
<glyph unicode="&#xd1;" horiz-adv-x="1273" d="M66 0q6 6 15 17.5t23.5 46t14.5 67.5v1049q0 33 -13.5 65.5t-26.5 48.5l-13 17h213l665 -971v840q0 33 -13 65.5t-27 48.5l-13 17h321q-6 -6 -15 -17.5t-23.5 -46t-14.5 -67.5v-1180h-141l-684 999v-868q0 -33 13 -65.5t27 -49.5l13 -16h-321zM301 1403q1 8 4.5 22.5 t20 50.5t39 63.5t66 50t97.5 22.5q43 0 76 -16t50.5 -34.5t45.5 -34.5t62 -16q29 0 53 10.5t38 25.5t24 29.5t14 25.5l4 10l49 -29q-1 -8 -4.5 -22.5t-20 -50.5t-39 -63.5t-66 -50t-97.5 -22.5q-43 0 -76 16t-50.5 34.5t-45.5 34.5t-62 16q-29 0 -53 -10.5t-38 -25.5 t-24 -29.5t-14 -25.5l-4 -10z" />
<glyph unicode="&#xd2;" horiz-adv-x="1261" d="M51 512v287q0 113 41 211.5t115.5 170.5t183.5 113t238 41q172 0 304.5 -71t202.5 -192.5t70 -272.5v-287q0 -232 -159 -384.5t-418 -152.5t-418.5 152.5t-159.5 384.5zM317 563q0 -75 6 -135t25.5 -126.5t52 -111t91 -73.5t137.5 -29q66 0 118 19t85 55t55 78.5 t33.5 100t15.5 108.5t4 114v185q0 62 -4 112.5t-15.5 108t-33.5 100.5t-55 79.5t-85 55.5t-118 19q-79 0 -137.5 -29t-91 -72.5t-52 -110t-25.5 -127t-6 -136.5v-185zM340 1544l160 94l200 -225l-65 -41z" />
<glyph unicode="&#xd3;" horiz-adv-x="1261" d="M51 512v287q0 113 41 211.5t115.5 170.5t183.5 113t238 41q172 0 304.5 -71t202.5 -192.5t70 -272.5v-287q0 -232 -159 -384.5t-418 -152.5t-418.5 152.5t-159.5 384.5zM317 563q0 -75 6 -135t25.5 -126.5t52 -111t91 -73.5t137.5 -29q66 0 118 19t85 55t55 78.5 t33.5 100t15.5 108.5t4 114v185q0 62 -4 112.5t-15.5 108t-33.5 100.5t-55 79.5t-85 55.5t-118 19q-79 0 -137.5 -29t-91 -72.5t-52 -110t-25.5 -127t-6 -136.5v-185zM569 1413l201 225l160 -94l-295 -172z" />
<glyph unicode="&#xd4;" horiz-adv-x="1261" d="M51 512v287q0 113 41 211.5t115.5 170.5t183.5 113t238 41q172 0 304.5 -71t202.5 -192.5t70 -272.5v-287q0 -232 -159 -384.5t-418 -152.5t-418.5 152.5t-159.5 384.5zM317 563q0 -75 6 -135t25.5 -126.5t52 -111t91 -73.5t137.5 -29q66 0 118 19t85 55t55 78.5 t33.5 100t15.5 108.5t4 114v185q0 62 -4 112.5t-15.5 108t-33.5 100.5t-55 79.5t-85 55.5t-118 19q-79 0 -137.5 -29t-91 -72.5t-52 -110t-25.5 -127t-6 -136.5v-185zM381 1434l254 192l250 -192l-29 -62l-221 82l-225 -82z" />
<glyph unicode="&#xd5;" horiz-adv-x="1261" d="M51 512v287q0 113 41 211.5t115.5 170.5t183.5 113t238 41q172 0 304.5 -71t202.5 -192.5t70 -272.5v-287q0 -232 -159 -384.5t-418 -152.5t-418.5 152.5t-159.5 384.5zM313 1403q1 4 2.5 11.5t9 29.5t17.5 41.5t28.5 44t41 41.5t56.5 29t73 12q43 0 76 -16t50 -34.5 t45 -34.5t62 -16q29 0 53 10.5t38 25.5t24 29.5t14 25.5l4 10l49 -29q-1 -8 -4.5 -22.5t-20 -50.5t-39 -63.5t-66 -50t-97.5 -22.5q-43 0 -76 16t-50 34.5t-45 34.5t-62 16q-45 0 -78.5 -25.5t-44.5 -50.5l-11 -25zM317 563q0 -75 6 -135t25.5 -126.5t52 -111t91 -73.5 t137.5 -29q66 0 118 19t85 55t55 78.5t33.5 100t15.5 108.5t4 114v185q0 62 -4 112.5t-15.5 108t-33.5 100.5t-55 79.5t-85 55.5t-118 19q-79 0 -137.5 -29t-91 -72.5t-52 -110t-25.5 -127t-6 -136.5v-185z" />
<glyph unicode="&#xd6;" horiz-adv-x="1261" d="M51 512v287q0 113 41 211.5t115.5 170.5t183.5 113t238 41q172 0 304.5 -71t202.5 -192.5t70 -272.5v-287q0 -232 -159 -384.5t-418 -152.5t-418.5 152.5t-159.5 384.5zM317 563q0 -75 6 -135t25.5 -126.5t52 -111t91 -73.5t137.5 -29q66 0 118 19t85 55t55 78.5 t33.5 100t15.5 108.5t4 114v185q0 62 -4 112.5t-15.5 108t-33.5 100.5t-55 79.5t-85 55.5t-118 19q-79 0 -137.5 -29t-91 -72.5t-52 -110t-25.5 -127t-6 -136.5v-185zM330 1491q0 44 33.5 75t80.5 31t81 -31t34 -75t-34 -75.5t-81 -31.5t-80.5 31.5t-33.5 75.5zM709 1491 q0 44 33.5 75t80.5 31t81 -31t34 -75t-34 -75.5t-81 -31.5t-80.5 31.5t-33.5 75.5z" />
<glyph unicode="&#xd7;" horiz-adv-x="1017" d="M80 102l358 359l-358 358l65 66l359 -359l358 359l66 -66l-359 -358l359 -359l-66 -65l-358 358l-359 -358z" />
<glyph unicode="&#xd8;" horiz-adv-x="1261" d="M51 512v287q0 113 41 211.5t115.5 170.5t183.5 113t238 41q90 0 172 -20l26 80l91 -29l-27 -81q148 -64 231.5 -192.5t83.5 -293.5v-287q0 -232 -159 -384.5t-418 -152.5q-79 0 -159 18l-32 -99l-88 28l32 98q-155 61 -243 192.5t-88 299.5zM317 563q0 -295 111 -402 l335 1035q-59 27 -134 27q-79 0 -137.5 -29t-91 -72.5t-52 -110t-25.5 -127t-6 -136.5v-185zM508 109q55 -21 121 -21t118 19t85 55t55 78.5t33.5 100t15.5 108.5t4 114v185q0 279 -97 389z" />
<glyph unicode="&#xd9;" horiz-adv-x="1208" d="M45 1311h373q-6 -6 -15 -17.5t-23.5 -46t-14.5 -67.5v-617q0 -62 4 -112.5t15.5 -108t33.5 -100.5t55 -79.5t85 -55.5t118 -19t118 19t85 55t55 78.5t33.5 100t15.5 108.5t4 114v617q0 33 -13.5 65.5t-26.5 48.5l-13 17h219q-6 -6 -15 -17.5t-23.5 -46t-14.5 -67.5v-668 q0 -117 -27 -212t-83.5 -169.5t-152 -115t-223.5 -40.5q-129 0 -228.5 41t-162 114t-94 170t-31.5 212v668q0 33 -13 65.5t-27 48.5zM367 1544l159 94l201 -225l-65 -41z" />
<glyph unicode="&#xda;" horiz-adv-x="1208" d="M45 1311h373q-6 -6 -15 -17.5t-23.5 -46t-14.5 -67.5v-617q0 -62 4 -112.5t15.5 -108t33.5 -100.5t55 -79.5t85 -55.5t118 -19t118 19t85 55t55 78.5t33.5 100t15.5 108.5t4 114v617q0 33 -13.5 65.5t-26.5 48.5l-13 17h219q-6 -6 -15 -17.5t-23.5 -46t-14.5 -67.5v-668 q0 -117 -27 -212t-83.5 -169.5t-152 -115t-223.5 -40.5q-129 0 -228.5 41t-162 114t-94 170t-31.5 212v668q0 33 -13 65.5t-27 48.5zM596 1413l201 225l159 -94l-294 -172z" />
<glyph unicode="&#xdb;" horiz-adv-x="1208" d="M45 1311h373q-6 -6 -15 -17.5t-23.5 -46t-14.5 -67.5v-617q0 -62 4 -112.5t15.5 -108t33.5 -100.5t55 -79.5t85 -55.5t118 -19t118 19t85 55t55 78.5t33.5 100t15.5 108.5t4 114v617q0 33 -13.5 65.5t-26.5 48.5l-13 17h219q-6 -6 -15 -17.5t-23.5 -46t-14.5 -67.5v-668 q0 -117 -27 -212t-83.5 -169.5t-152 -115t-223.5 -40.5q-129 0 -228.5 41t-162 114t-94 170t-31.5 212v668q0 33 -13 65.5t-27 48.5zM408 1434l254 192l249 -192l-28 -62l-221 82l-226 -82z" />
<glyph unicode="&#xdc;" horiz-adv-x="1208" d="M45 1311h373q-6 -6 -15 -17.5t-23.5 -46t-14.5 -67.5v-617q0 -62 4 -112.5t15.5 -108t33.5 -100.5t55 -79.5t85 -55.5t118 -19t118 19t85 55t55 78.5t33.5 100t15.5 108.5t4 114v617q0 33 -13.5 65.5t-26.5 48.5l-13 17h219q-6 -6 -15 -17.5t-23.5 -46t-14.5 -67.5v-668 q0 -117 -27 -212t-83.5 -169.5t-152 -115t-223.5 -40.5q-129 0 -228.5 41t-162 114t-94 170t-31.5 212v668q0 33 -13 65.5t-27 48.5zM356 1491q0 44 34 75t81 31t81 -31t34 -75t-34 -75.5t-81 -31.5t-81 31.5t-34 75.5zM735 1491q0 44 34 75t81 31t81 -31t34 -75t-34 -75.5 t-81 -31.5t-81 31.5t-34 75.5z" />
<glyph unicode="&#xdd;" horiz-adv-x="1148" d="M20 1311h367q-16 -17 -16 -66q0 -28 30 -82l236 -399l229 399q29 56 29 82q0 22 -4 38.5t-8 22.5l-4 5h243q-7 -4 -19 -12.5t-38 -34.5t-41 -52l-311 -544v-537q0 -33 13.5 -65.5t26.5 -49.5l13 -16h-322q6 6 15 17.5t24 46t15 67.5v438l-367 623q-16 28 -44 58t-47 46z M569 1413l201 225l160 -94l-295 -172z" />
<glyph unicode="&#xde;" horiz-adv-x="1050" d="M66 0q6 6 15 17.5t23.5 46t14.5 67.5v1049q0 33 -13.5 65.5t-26.5 48.5l-13 17h321q-6 -6 -15 -17.5t-23.5 -46t-14.5 -67.5v-115h223q100 0 177.5 -17.5t126 -46t79.5 -69.5t43 -84t12 -94v-144q0 -58 -21 -112t-66 -104t-129.5 -80.5t-196.5 -30.5q-127 0 -248 22v-174 q0 -33 13 -65.5t27 -49.5l13 -16h-321zM334 418q115 -25 207 -25q96 0 168.5 75t72.5 142v115q0 30 -18.5 69t-49.5 75t-77.5 60.5t-95.5 24.5h-207v-536z" />
<glyph unicode="&#xdf;" horiz-adv-x="1052" d="M63 0q6 6 15 17.5t24 46t15 67.5v418q0 86 24.5 155.5t64 113.5t93 74t108.5 42t113 12q153 0 262 -74.5t109 -195.5q0 -132 -254 -178q166 -30 266.5 -95t100.5 -165q0 -119 -83 -188.5t-239 -69.5q-94 0 -171 34t-95 76l28 49q72 -53 189 -53q115 0 115 147 q0 56 -58 109.5t-131 84t-131 34.5v80q44 2 84 9.5t76.5 22.5t58 41.5t21.5 61.5q0 68 -46 114t-108 46q-66 0 -124 -57t-58 -130v-649h-269z" />
<glyph unicode="&#xe0;" horiz-adv-x="1134" d="M41 0q43 40 63 106l267 816h381l264 -811q9 -29 25.5 -57t28.5 -41l13 -13h-364q41 37 41 88q0 21 -4 31l-80 243h-371l-80 -243q-4 -10 -4 -29q0 -23 11 -45.5t22 -33.5l12 -11h-225zM258 1155l160 94l200 -225l-65 -41zM342 475h297l-109 334h-79z" />
<glyph unicode="&#xe1;" horiz-adv-x="1134" d="M41 0q43 40 63 106l267 816h381l264 -811q9 -29 25.5 -57t28.5 -41l13 -13h-364q41 37 41 88q0 21 -4 31l-80 243h-371l-80 -243q-4 -10 -4 -29q0 -23 11 -45.5t22 -33.5l12 -11h-225zM342 475h297l-109 334h-79zM487 1024l201 225l160 -94l-295 -172z" />
<glyph unicode="&#xe2;" horiz-adv-x="1134" d="M41 0q43 40 63 106l267 816h381l264 -811q9 -29 25.5 -57t28.5 -41l13 -13h-364q41 37 41 88q0 21 -4 31l-80 243h-371l-80 -243q-4 -10 -4 -29q0 -23 11 -45.5t22 -33.5l12 -11h-225zM299 1044l254 193l250 -193l-29 -61l-221 82l-225 -82zM342 475h297l-109 334h-79z " />
<glyph unicode="&#xe3;" horiz-adv-x="1134" d="M41 0q43 40 63 106l267 816h381l264 -811q9 -29 25.5 -57t28.5 -41l13 -13h-364q41 37 41 88q0 21 -4 31l-80 243h-371l-80 -243q-4 -10 -4 -29q0 -23 11 -45.5t22 -33.5l12 -11h-225zM231 1014q1 4 2.5 11.5t9 29.5t17.5 41.5t28.5 44t41 41.5t56.5 29t73 12 q43 0 76 -16t50 -34.5t45 -34.5t62 -16q29 0 53 10.5t38 25t24 29.5t14 25l4 11l49 -29q-1 -8 -4.5 -22.5t-20 -50.5t-39 -63.5t-66 -50t-97.5 -22.5q-43 0 -76 15.5t-50 34.5t-45 34.5t-62 15.5q-29 0 -53 -10.5t-38 -25t-24 -29t-14 -24.5l-4 -11zM342 475h297l-109 334 h-79z" />
<glyph unicode="&#xe4;" horiz-adv-x="1134" d="M41 0q43 40 63 106l267 816h381l264 -811q9 -29 25.5 -57t28.5 -41l13 -13h-364q41 37 41 88q0 21 -4 31l-80 243h-371l-80 -243q-4 -10 -4 -29q0 -23 11 -45.5t22 -33.5l12 -11h-225zM248 1102q0 44 33.5 75t80.5 31t81 -31t34 -75t-34 -75.5t-81 -31.5t-80.5 31.5 t-33.5 75.5zM342 475h297l-109 334h-79zM627 1102q0 44 33.5 75t80.5 31t81 -31t34 -75t-34 -75.5t-81 -31.5t-80.5 31.5t-33.5 75.5z" />
<glyph unicode="&#xe5;" horiz-adv-x="1134" d="M41 0q43 40 63 106l267 816h381l264 -811q9 -29 25.5 -57t28.5 -41l13 -13h-364q41 37 41 88q0 21 -4 31l-80 243h-371l-80 -243q-4 -10 -4 -29q0 -23 11 -45.5t22 -33.5l12 -11h-225zM342 475h297l-109 334h-79zM385 1077q0 135 168 135t168 -135t-168 -135t-168 135z M475 1077q0 -32 23 -55t55 -23t55 23t23 55t-23 55t-55 23t-55 -23t-23 -55z" />
<glyph unicode="&#xe6;" horiz-adv-x="1499" d="M41 0q45 45 68 113l262 809h954l31 -166q-6 6 -17.5 15t-46 23.5t-67.5 14.5h-340v-188h215q33 0 65.5 13.5t48.5 26.5l17 13v-219q-6 6 -17.5 15t-45.5 23.5t-68 14.5h-215v-395h422q33 0 65.5 13.5t49.5 26.5l16 13v-166h-852q6 6 15 17.5t23.5 46t14.5 67.5v231h-334 l-80 -247q-4 -16 -4 -27q0 -23 11 -45t22 -33l12 -10h-225zM342 475h297v334h-188z" />
<glyph unicode="&#xe7;" horiz-adv-x="1114" d="M43 471q0 221 146.5 348t431.5 127q99 0 164 -17t103 -33.5t73 -16.5q15 0 51 12l-15 -221q-147 164 -376 164q-312 0 -312 -363q0 -177 82 -280t230 -103q107 0 177.5 23t107.5 60t69 101l92 -51q-21 -46 -47.5 -82t-68 -71.5t-104.5 -58t-144 -30.5l-37 -63 q67 -14 87.5 -47.5t20.5 -95.5q0 -65 -61 -122t-144 -57q-46 0 -80.5 11t-52 23t-57.5 44l24 41q50 -29 68.5 -35t54.5 -6q35 0 59.5 25.5t24.5 64.5q0 42 -42 68.5t-128 32.5l75 117q-231 22 -351.5 144.5t-120.5 346.5z" />
<glyph unicode="&#xe8;" d="M63 0q6 6 15 17.5t24 46t15 67.5v660q0 33 -13.5 65.5t-27.5 49.5l-13 16h740l31 -166q-7 6 -18.5 15t-46 23.5t-67.5 14.5h-340v-188h216q33 0 65.5 13.5t48.5 26.5l17 13v-219q-6 6 -17.5 15t-45.5 23.5t-68 14.5h-216v-395h422q33 0 65.5 13.5t48.5 26.5l17 13v-166 h-852zM176 1155l160 94l201 -225l-66 -41z" />
<glyph unicode="&#xe9;" d="M63 0q6 6 15 17.5t24 46t15 67.5v660q0 33 -13.5 65.5t-27.5 49.5l-13 16h740l31 -166q-7 6 -18.5 15t-46 23.5t-67.5 14.5h-340v-188h216q33 0 65.5 13.5t48.5 26.5l17 13v-219q-6 6 -17.5 15t-45.5 23.5t-68 14.5h-216v-395h422q33 0 65.5 13.5t48.5 26.5l17 13v-166 h-852zM406 1024l200 225l160 -94l-295 -172z" />
<glyph unicode="&#xea;" d="M63 0q6 6 15 17.5t24 46t15 67.5v660q0 33 -13.5 65.5t-27.5 49.5l-13 16h740l31 -166q-7 6 -18.5 15t-46 23.5t-67.5 14.5h-340v-188h216q33 0 65.5 13.5t48.5 26.5l17 13v-219q-6 6 -17.5 15t-45.5 23.5t-68 14.5h-216v-395h422q33 0 65.5 13.5t48.5 26.5l17 13v-166 h-852zM217 1044l254 193l250 -193l-29 -61l-221 82l-225 -82z" />
<glyph unicode="&#xeb;" d="M63 0q6 6 15 17.5t24 46t15 67.5v660q0 33 -13.5 65.5t-27.5 49.5l-13 16h740l31 -166q-7 6 -18.5 15t-46 23.5t-67.5 14.5h-340v-188h216q33 0 65.5 13.5t48.5 26.5l17 13v-219q-6 6 -17.5 15t-45.5 23.5t-68 14.5h-216v-395h422q33 0 65.5 13.5t48.5 26.5l17 13v-166 h-852zM166 1102q0 44 34 75t81 31t80.5 -31t33.5 -75t-33.5 -75.5t-80.5 -31.5t-81 31.5t-34 75.5zM545 1102q0 44 33.5 75t80.5 31t81 -31t34 -75t-34 -75.5t-81 -31.5t-80.5 31.5t-33.5 75.5z" />
<glyph unicode="&#xec;" horiz-adv-x="454" d="M-76 1155l160 94l201 -225l-66 -41zM63 0q6 6 15 17.5t24 46t15 67.5v660q0 33 -13.5 65.5t-27.5 49.5l-13 16h322q-6 -6 -15 -17.5t-23.5 -46t-14.5 -67.5v-660q0 -33 13 -65.5t27 -49.5l13 -16h-322z" />
<glyph unicode="&#xed;" horiz-adv-x="454" d="M63 0q6 6 15 17.5t24 46t15 67.5v660q0 33 -13.5 65.5t-27.5 49.5l-13 16h322q-6 -6 -15 -17.5t-23.5 -46t-14.5 -67.5v-660q0 -33 13 -65.5t27 -49.5l13 -16h-322zM154 1024l200 225l160 -94l-295 -172z" />
<glyph unicode="&#xee;" horiz-adv-x="454" d="M-35 1044l254 193l250 -193l-29 -61l-221 82l-225 -82zM63 0q6 6 15 17.5t24 46t15 67.5v660q0 33 -13.5 65.5t-27.5 49.5l-13 16h322q-6 -6 -15 -17.5t-23.5 -46t-14.5 -67.5v-660q0 -33 13 -65.5t27 -49.5l13 -16h-322z" />
<glyph unicode="&#xef;" horiz-adv-x="454" d="M-86 1102q0 44 34 75t81 31t80.5 -31t33.5 -75t-33.5 -75.5t-80.5 -31.5t-81 31.5t-34 75.5zM63 0q6 6 15 17.5t24 46t15 67.5v660q0 33 -13.5 65.5t-27.5 49.5l-13 16h322q-6 -6 -15 -17.5t-23.5 -46t-14.5 -67.5v-660q0 -33 13 -65.5t27 -49.5l13 -16h-322zM293 1102 q0 44 34 75t81 31t80.5 -31t33.5 -75t-33.5 -75.5t-80.5 -31.5t-81 31.5t-34 75.5z" />
<glyph unicode="&#xf0;" horiz-adv-x="1161" d="M41 436v103h88v252q0 33 -13.5 65.5t-26.5 49.5l-13 16h436q100 0 189 -17t166 -53.5t132.5 -89t87 -128t31.5 -165.5q0 -119 -47 -210.5t-130.5 -147t-191.5 -83.5t-237 -28h-436q6 6 15 17.5t23.5 46t14.5 67.5v305h-88zM354 113h105q199 0 296 86.5t97 271.5 q0 169 -101 253.5t-292 84.5h-105v-270h156v-103h-156v-323z" />
<glyph unicode="&#xf1;" horiz-adv-x="1269" d="M63 0q6 6 15 17.5t24 46t15 67.5v660q0 33 -13.5 65.5t-27.5 49.5l-13 16h179l700 -715v584q0 33 -13 65.5t-27 49.5l-13 16h321q-6 -6 -15 -17.5t-23.5 -46t-14.5 -67.5v-791h-184l-641 653v-522q0 -33 13 -65.5t27 -49.5l13 -16h-322zM281 1014q1 8 4.5 22.5t20 50.5 t39 63.5t66 50t97.5 22.5q43 0 76 -16t50 -34.5t45 -34.5t62 -16q29 0 53 10.5t38 25t24 29.5t14 25l4 11l50 -29q-1 -4 -2.5 -11.5t-9 -29.5t-17.5 -41.5t-28.5 -44t-41 -41.5t-56.5 -29t-73 -12q-43 0 -76 15.5t-50 34.5t-45 34.5t-62 15.5q-29 0 -53 -10.5t-38 -25 t-24 -29t-14 -24.5l-4 -11z" />
<glyph unicode="&#xf2;" horiz-adv-x="1243" d="M43 461q0 85 18 155.5t60.5 132.5t107.5 105t164.5 67.5t227.5 24.5t227.5 -24.5t164.5 -67.5t107 -105t60 -132.5t18 -155.5q0 -107 -29.5 -191.5t-94.5 -152.5t-179.5 -105t-273.5 -37q-128 0 -227.5 24.5t-164.5 67.5t-107.5 105.5t-60.5 133t-18 155.5zM309 461 q0 -56 8 -106t29 -100t55 -86t90.5 -58.5t129.5 -22.5t129.5 22.5t90 58t55 86t29 100t7.5 106.5t-7.5 106.5t-29 100t-55 86t-90 58t-129.5 22.5t-129.5 -22.5t-90.5 -58.5t-55 -86t-29 -100t-8 -106zM328 1155l159 94l201 -225l-65 -41z" />
<glyph unicode="&#xf3;" horiz-adv-x="1243" d="M43 461q0 85 18 155.5t60.5 132.5t107.5 105t164.5 67.5t227.5 24.5t227.5 -24.5t164.5 -67.5t107 -105t60 -132.5t18 -155.5q0 -107 -29.5 -191.5t-94.5 -152.5t-179.5 -105t-273.5 -37q-128 0 -227.5 24.5t-164.5 67.5t-107.5 105.5t-60.5 133t-18 155.5zM309 461 q0 -56 8 -106t29 -100t55 -86t90.5 -58.5t129.5 -22.5t129.5 22.5t90 58t55 86t29 100t7.5 106.5t-7.5 106.5t-29 100t-55 86t-90 58t-129.5 22.5t-129.5 -22.5t-90.5 -58.5t-55 -86t-29 -100t-8 -106zM557 1024l201 225l160 -94l-295 -172z" />
<glyph unicode="&#xf4;" horiz-adv-x="1243" d="M43 461q0 85 18 155.5t60.5 132.5t107.5 105t164.5 67.5t227.5 24.5t227.5 -24.5t164.5 -67.5t107 -105t60 -132.5t18 -155.5q0 -107 -29.5 -191.5t-94.5 -152.5t-179.5 -105t-273.5 -37q-128 0 -227.5 24.5t-164.5 67.5t-107.5 105.5t-60.5 133t-18 155.5zM309 461 q0 -56 8 -106t29 -100t55 -86t90.5 -58.5t129.5 -22.5t129.5 22.5t90 58t55 86t29 100t7.5 106.5t-7.5 106.5t-29 100t-55 86t-90 58t-129.5 22.5t-129.5 -22.5t-90.5 -58.5t-55 -86t-29 -100t-8 -106zM369 1044l254 193l249 -193l-28 -61l-221 82l-226 -82z" />
<glyph unicode="&#xf5;" horiz-adv-x="1243" d="M43 461q0 85 18 155.5t60.5 132.5t107.5 105t164.5 67.5t227.5 24.5t227.5 -24.5t164.5 -67.5t107 -105t60 -132.5t18 -155.5q0 -107 -29.5 -191.5t-94.5 -152.5t-179.5 -105t-273.5 -37q-128 0 -227.5 24.5t-164.5 67.5t-107.5 105.5t-60.5 133t-18 155.5zM301 1014 q1 8 4.5 22.5t20 50.5t39 63.5t66 50t97.5 22.5q43 0 76 -16t50.5 -34.5t45.5 -34.5t62 -16q29 0 53 10.5t38 25t24 29.5t14 25l4 11l49 -29q-1 -8 -4.5 -22.5t-20 -50.5t-39 -63.5t-66 -50t-97.5 -22.5q-43 0 -76 15.5t-50.5 34.5t-45.5 34.5t-62 15.5q-29 0 -53 -10.5 t-38 -25t-24 -29t-14 -24.5l-4 -11zM309 461q0 -56 8 -106t29 -100t55 -86t90.5 -58.5t129.5 -22.5t129.5 22.5t90 58t55 86t29 100t7.5 106.5t-7.5 106.5t-29 100t-55 86t-90 58t-129.5 22.5t-129.5 -22.5t-90.5 -58.5t-55 -86t-29 -100t-8 -106z" />
<glyph unicode="&#xf6;" horiz-adv-x="1243" d="M43 461q0 85 18 155.5t60.5 132.5t107.5 105t164.5 67.5t227.5 24.5t227.5 -24.5t164.5 -67.5t107 -105t60 -132.5t18 -155.5q0 -107 -29.5 -191.5t-94.5 -152.5t-179.5 -105t-273.5 -37q-128 0 -227.5 24.5t-164.5 67.5t-107.5 105.5t-60.5 133t-18 155.5zM309 461 q0 -56 8 -106t29 -100t55 -86t90.5 -58.5t129.5 -22.5t129.5 22.5t90 58t55 86t29 100t7.5 106.5t-7.5 106.5t-29 100t-55 86t-90 58t-129.5 22.5t-129.5 -22.5t-90.5 -58.5t-55 -86t-29 -100t-8 -106zM317 1102q0 44 34 75t81 31t81 -31t34 -75t-34 -75.5t-81 -31.5 t-81 31.5t-34 75.5zM696 1102q0 44 34 75t81 31t81 -31t34 -75t-34 -75.5t-81 -31.5t-81 31.5t-34 75.5z" />
<glyph unicode="&#xf7;" horiz-adv-x="823" d="M74 389v131h671v-131h-671zM287 174q0 54 37.5 92.5t89.5 38.5t89.5 -38.5t37.5 -92.5t-37.5 -92.5t-89.5 -38.5t-89.5 38.5t-37.5 92.5zM287 748q0 54 37.5 92.5t89.5 38.5t89.5 -38.5t37.5 -92.5t-37.5 -93t-89.5 -39t-89.5 39t-37.5 93z" />
<glyph unicode="&#xf8;" horiz-adv-x="1243" d="M43 461q0 85 18 155.5t60.5 132.5t107.5 105t164.5 67.5t227.5 24.5q91 0 168 -12l38 82l84 -39l-30 -64q317 -95 317 -452q0 -107 -29.5 -191.5t-94.5 -152.5t-179.5 -105t-273.5 -37q-89 0 -172 13l-46 -97l-81 39l36 79q-315 95 -315 452zM309 461q0 -220 114 -312 l312 668q-51 17 -114 17q-73 0 -129.5 -22.5t-90.5 -58.5t-55 -86t-29 -100t-8 -106zM504 105q51 -17 117 -17q73 0 129.5 22.5t90 58t55 86t29 100t7.5 106.5q0 220 -116 313z" />
<glyph unicode="&#xf9;" horiz-adv-x="1118" d="M41 922h373q-6 -6 -15 -17.5t-24 -46t-15 -67.5v-228q0 -59 1 -96.5t4.5 -87.5t11.5 -82t20.5 -69t32.5 -59.5t48 -42.5t66.5 -29t86.5 -9q53 0 94 13t69.5 33.5t48.5 56t31 71.5t17.5 89.5t8 99.5t1.5 112v228q0 33 -13.5 65.5t-26.5 49.5l-13 16h219q-6 -6 -15 -17.5 t-23.5 -46t-14.5 -67.5v-279q0 -96 -12 -173t-43.5 -146.5t-81 -116t-127.5 -74t-181 -27.5q-128 0 -222 40.5t-148 115t-79.5 169t-25.5 212.5v279q0 33 -13 65.5t-27 49.5zM344 1155l160 94l201 -225l-66 -41z" />
<glyph unicode="&#xfa;" horiz-adv-x="1118" d="M41 922h373q-6 -6 -15 -17.5t-24 -46t-15 -67.5v-228q0 -59 1 -96.5t4.5 -87.5t11.5 -82t20.5 -69t32.5 -59.5t48 -42.5t66.5 -29t86.5 -9q53 0 94 13t69.5 33.5t48.5 56t31 71.5t17.5 89.5t8 99.5t1.5 112v228q0 33 -13.5 65.5t-26.5 49.5l-13 16h219q-6 -6 -15 -17.5 t-23.5 -46t-14.5 -67.5v-279q0 -96 -12 -173t-43.5 -146.5t-81 -116t-127.5 -74t-181 -27.5q-128 0 -222 40.5t-148 115t-79.5 169t-25.5 212.5v279q0 33 -13 65.5t-27 49.5zM573 1024l201 225l160 -94l-295 -172z" />
<glyph unicode="&#xfb;" horiz-adv-x="1118" d="M41 922h373q-6 -6 -15 -17.5t-24 -46t-15 -67.5v-228q0 -59 1 -96.5t4.5 -87.5t11.5 -82t20.5 -69t32.5 -59.5t48 -42.5t66.5 -29t86.5 -9q53 0 94 13t69.5 33.5t48.5 56t31 71.5t17.5 89.5t8 99.5t1.5 112v228q0 33 -13.5 65.5t-26.5 49.5l-13 16h219q-6 -6 -15 -17.5 t-23.5 -46t-14.5 -67.5v-279q0 -96 -12 -173t-43.5 -146.5t-81 -116t-127.5 -74t-181 -27.5q-128 0 -222 40.5t-148 115t-79.5 169t-25.5 212.5v279q0 33 -13 65.5t-27 49.5zM385 1044l254 193l250 -193l-29 -61l-221 82l-225 -82z" />
<glyph unicode="&#xfc;" horiz-adv-x="1118" d="M41 922h373q-6 -6 -15 -17.5t-24 -46t-15 -67.5v-228q0 -59 1 -96.5t4.5 -87.5t11.5 -82t20.5 -69t32.5 -59.5t48 -42.5t66.5 -29t86.5 -9q53 0 94 13t69.5 33.5t48.5 56t31 71.5t17.5 89.5t8 99.5t1.5 112v228q0 33 -13.5 65.5t-26.5 49.5l-13 16h219q-6 -6 -15 -17.5 t-23.5 -46t-14.5 -67.5v-279q0 -96 -12 -173t-43.5 -146.5t-81 -116t-127.5 -74t-181 -27.5q-128 0 -222 40.5t-148 115t-79.5 169t-25.5 212.5v279q0 33 -13 65.5t-27 49.5zM334 1102q0 44 34 75t81 31t80.5 -31t33.5 -75t-33.5 -75.5t-80.5 -31.5t-81 31.5t-34 75.5z M713 1102q0 44 33.5 75t80.5 31t81 -31t34 -75t-34 -75.5t-81 -31.5t-80.5 31.5t-33.5 75.5z" />
<glyph unicode="&#xfd;" horiz-adv-x="1114" d="M33 922h366q-16 -17 -16 -66q0 -39 31 -82l170 -246l196 246q29 39 29 82q0 22 -4 38.5t-8 21.5l-4 6h274q-82 -40 -129 -99l-297 -372v-320q0 -33 13.5 -65.5t26.5 -49.5l13 -16h-321q6 6 15 17.5t23.5 46t14.5 67.5v266l-283 406q-20 28 -47.5 57.5t-45.5 45.5z M535 1024l200 225l160 -94l-295 -172z" />
<glyph unicode="&#xfe;" horiz-adv-x="964" d="M63 0q6 6 15 17.5t24 46t15 67.5v660q0 33 -13.5 65.5t-27.5 49.5l-13 16h322q-6 -6 -15 -17.5t-23.5 -46t-14.5 -67.5v-60h151q113 0 195.5 -16t128.5 -40t73 -60.5t34.5 -69t7.5 -74.5q0 -40 -8.5 -74t-35.5 -70t-71 -61t-120.5 -41t-178.5 -16q-86 0 -176 22v-100 q0 -33 13 -65.5t27 -49.5l13 -16h-322zM332 338q78 -19 135 -19q122 0 167.5 41t45.5 111q0 150 -213 150h-135v-283z" />
<glyph unicode="&#xff;" horiz-adv-x="1114" d="M33 922h366q-16 -17 -16 -66q0 -39 31 -82l170 -246l196 246q29 39 29 82q0 22 -4 38.5t-8 21.5l-4 6h274q-82 -40 -129 -99l-297 -372v-320q0 -33 13.5 -65.5t26.5 -49.5l13 -16h-321q6 6 15 17.5t23.5 46t14.5 67.5v266l-283 406q-20 28 -47.5 57.5t-45.5 45.5z M295 1102q0 44 34 75t81 31t80.5 -31t33.5 -75t-33.5 -75.5t-80.5 -31.5t-81 31.5t-34 75.5zM674 1102q0 44 33.5 75t80.5 31t81 -31t34 -75t-34 -75.5t-81 -31.5t-80.5 31.5t-33.5 75.5z" />
<glyph unicode="&#x152;" horiz-adv-x="1574" d="M51 512v287q0 111 42.5 211t112.5 171t165 112.5t196 41.5q99 0 170 -24h666l31 -166q-6 6 -17.5 15t-46 23.5t-67.5 14.5h-340v-383h215q33 0 65.5 13.5t48.5 26.5l17 13v-219q-6 6 -17.5 15t-45.5 23.5t-68 14.5h-215v-589h421q33 0 66 13.5t50 26.5l16 13v-166h-779 q-73 -25 -170 -25q-129 0 -228.5 41t-162 114t-94 170t-31.5 212zM317 563q0 -87 14 -168t43 -151.5t78.5 -113t114.5 -42.5q95 0 150 39v1057q-55 39 -150 39q-65 0 -114.5 -42t-78.5 -112t-43 -151.5t-14 -169.5v-185z" />
<glyph unicode="&#x153;" horiz-adv-x="1570" d="M43 461q0 104 31 191t93 153.5t162 103.5t230 37q121 0 191 -24h647l30 -166q-6 6 -17.5 15t-46 23.5t-67.5 14.5h-340v-188h215q33 0 66 13.5t49 26.5l17 13v-219q-6 6 -17.5 15t-46 23.5t-68.5 14.5h-215v-395h422q33 0 65.5 13.5t48.5 26.5l17 13v-166h-759 q-73 -25 -191 -25q-126 0 -226 37.5t-162.5 104t-95 154t-32.5 190.5zM309 461q0 -69 13.5 -132t41.5 -119t78 -89t117 -33q92 0 152 37v6v660v6q-55 37 -152 37q-67 0 -117.5 -33t-78.5 -89t-41 -119t-13 -132z" />
<glyph unicode="&#x178;" horiz-adv-x="1148" d="M20 1311h367q-16 -17 -16 -66q0 -28 30 -82l236 -399l229 399q29 56 29 82q0 22 -4 38.5t-8 22.5l-4 5h243q-7 -4 -19 -12.5t-38 -34.5t-41 -52l-311 -544v-537q0 -33 13.5 -65.5t26.5 -49.5l13 -16h-322q6 6 15 17.5t24 46t15 67.5v438l-367 623q-16 28 -44 58t-47 46z M330 1491q0 44 33.5 75t80.5 31t81 -31t34 -75t-34 -75.5t-81 -31.5t-80.5 31.5t-33.5 75.5zM709 1491q0 44 33.5 75t80.5 31t81 -31t34 -75t-34 -75.5t-81 -31.5t-80.5 31.5t-33.5 75.5z" />
<glyph unicode="&#x2c6;" horiz-adv-x="606" d="M51 1434l254 192l250 -192l-29 -62l-221 82l-225 -82z" />
<glyph unicode="&#x2dc;" horiz-adv-x="765" d="M61 1403q1 4 2.5 11.5t9 29.5t17.5 41.5t28.5 44t41 41.5t56.5 29t73 12q43 0 76 -16t50 -34.5t45 -34.5t62 -16q29 0 53 10.5t38 25.5t24 29.5t14 25.5l4 10l50 -29q-1 -4 -2.5 -11.5t-9 -29.5t-17.5 -41.5t-28.5 -44t-41 -41.5t-56.5 -29t-73 -12q-43 0 -76 16 t-50 34.5t-45 34.5t-62 16q-29 0 -53 -10.5t-38 -25.5t-24 -29.5t-14 -25.5l-4 -10z" />
<glyph unicode="&#x2000;" horiz-adv-x="819" />
<glyph unicode="&#x2001;" horiz-adv-x="1638" />
<glyph unicode="&#x2002;" horiz-adv-x="819" />
<glyph unicode="&#x2003;" horiz-adv-x="1638" />
<glyph unicode="&#x2004;" horiz-adv-x="546" />
<glyph unicode="&#x2005;" horiz-adv-x="409" />
<glyph unicode="&#x2006;" horiz-adv-x="273" />
<glyph unicode="&#x2007;" horiz-adv-x="273" />
<glyph unicode="&#x2008;" horiz-adv-x="204" />
<glyph unicode="&#x2009;" horiz-adv-x="327" />
<glyph unicode="&#x200a;" horiz-adv-x="91" />
<glyph unicode="&#x2010;" horiz-adv-x="823" d="M74 389v131h671v-131h-671z" />
<glyph unicode="&#x2011;" horiz-adv-x="823" d="M74 389v131h671v-131h-671z" />
<glyph unicode="&#x2012;" horiz-adv-x="823" d="M74 389v131h671v-131h-671z" />
<glyph unicode="&#x2013;" horiz-adv-x="1028" d="M74 389v131h876v-131h-876z" />
<glyph unicode="&#x2014;" horiz-adv-x="1239" d="M0 389v131h1239v-131h-1239z" />
<glyph unicode="&#x2018;" horiz-adv-x="526" d="M123 993q0 46 18.5 101.5t45 101.5t53 85t44.5 61l19 22l41 -21q-53 -106 -53 -190q0 -39 11.5 -66.5t25.5 -41t25.5 -37.5t11.5 -56q0 -49 -34 -85t-89 -36q-53 0 -86 42.5t-33 119.5z" />
<glyph unicode="&#x2019;" horiz-adv-x="526" d="M123 1243q0 49 34 85t89 36q53 0 86 -42.5t33 -119.5q0 -74 -45.5 -166.5t-90.5 -148.5l-45 -56l-41 21q54 106 54 190q0 39 -11.5 66.5t-25.5 41t-25.5 37.5t-11.5 56z" />
<glyph unicode="&#x201a;" horiz-adv-x="526" d="M123 160q0 49 34 85t89 36q53 0 86 -42.5t33 -119.5q0 -74 -45.5 -166.5t-90.5 -148.5l-45 -56l-41 21q54 106 54 190q0 39 -11.5 66.5t-25.5 41t-25.5 37.5t-11.5 56z" />
<glyph unicode="&#x201c;" horiz-adv-x="894" d="M123 993q0 46 18.5 101.5t45 101.5t53 85t44.5 61l19 22l41 -21q-53 -106 -53 -190q0 -39 11.5 -66.5t25.5 -41t25.5 -37.5t11.5 -56q0 -49 -34 -85t-89 -36q-53 0 -86 42.5t-33 119.5zM492 993q0 46 18.5 101.5t45 101.5t53 85t45.5 61l18 22l41 -21q-54 -106 -54 -190 q0 -39 11.5 -66.5t25.5 -41t25.5 -37.5t11.5 -56q0 -49 -34 -85t-89 -36q-53 0 -85.5 42.5t-32.5 119.5z" />
<glyph unicode="&#x201d;" horiz-adv-x="894" d="M123 1243q0 49 34 85t89 36q53 0 86 -42.5t33 -119.5q0 -74 -45.5 -166.5t-90.5 -148.5l-45 -56l-41 21q54 106 54 190q0 39 -11.5 66.5t-25.5 41t-25.5 37.5t-11.5 56zM492 1243q0 49 33.5 85t88.5 36q53 0 86 -42.5t33 -119.5q0 -46 -18.5 -101.5t-45 -101.5t-53 -85 t-44.5 -61l-19 -22l-41 21q53 106 53 190q0 39 -11.5 66.5t-25 41t-25 37.5t-11.5 56z" />
<glyph unicode="&#x201e;" horiz-adv-x="894" d="M123 160q0 49 34 85t89 36q53 0 86 -42.5t33 -119.5q0 -74 -45.5 -166.5t-90.5 -148.5l-45 -56l-41 21q54 106 54 190q0 39 -11.5 66.5t-25.5 41t-25.5 37.5t-11.5 56zM492 160q0 49 33.5 85t88.5 36q53 0 86 -42.5t33 -119.5q0 -46 -18.5 -101.5t-45 -101.5t-53 -85 t-44.5 -61l-19 -22l-41 21q53 106 53 190q0 39 -11.5 66.5t-25 41t-25 37.5t-11.5 56z" />
<glyph unicode="&#x2022;" horiz-adv-x="925" d="M82 461q0 158 111.5 269.5t269.5 111.5t269.5 -111.5t111.5 -269.5t-111.5 -269.5t-269.5 -111.5t-269.5 111.5t-111.5 269.5z" />
<glyph unicode="&#x2026;" horiz-adv-x="1200" d="M82 106q0 54 37.5 93t89.5 39t89.5 -39t37.5 -93t-37.5 -92.5t-89.5 -38.5t-89.5 38.5t-37.5 92.5zM471 106q0 54 37.5 93t89.5 39t89.5 -39t37.5 -93t-37.5 -92.5t-89.5 -38.5t-89.5 38.5t-37.5 92.5zM860 106q0 54 37.5 93t89.5 39t89.5 -39t37.5 -93t-37.5 -92.5 t-89.5 -38.5t-89.5 38.5t-37.5 92.5z" />
<glyph unicode="&#x202f;" horiz-adv-x="327" />
<glyph unicode="&#x2039;" horiz-adv-x="585" d="M94 461l346 373l52 -39l-166 -334l166 -338l-52 -39z" />
<glyph unicode="&#x203a;" horiz-adv-x="585" d="M94 123l166 334l-166 338l51 39l347 -377l-347 -373z" />
<glyph unicode="&#x205f;" horiz-adv-x="409" />
<glyph unicode="&#x20ac;" horiz-adv-x="1290" d="M82 504l53 90h103v123q0 27 2 41h-142l54 90h102q33 128 118 239t205 179.5t244 68.5q66 0 121.5 -10.5t85 -23t61 -23t54.5 -10.5q13 0 49 12l-12 -221q-66 74 -160 119t-199 45q-55 0 -104.5 -31.5t-86 -85.5t-63.5 -119.5t-43 -138.5h490l-37 -90h-467q-6 -50 -6 -92 v-21q0 -33 2 -51h403l-37 -90h-356q10 -63 27.5 -120t46 -112t64 -95t86 -64.5t108.5 -24.5q111 0 178.5 17t132.5 55l66 -86q-161 -99 -377 -99q-117 0 -223 44.5t-183 118t-128.5 169t-67.5 197.5h-164z" />
<glyph unicode="&#x2122;" horiz-adv-x="1722" d="M82 1212l31 160h516q5 -26 15 -81t15 -81q-6 6 -17.5 20t-18.5 20.5t-24.5 13t-41.5 6.5h-111v-377q0 -27 9.5 -44t29 -32.5t21.5 -17.5h-273q4 5 20.5 19t25 31t8.5 44v377h-101q-31 0 -48 -7t-34.5 -27.5t-21.5 -23.5zM676 799q4 5 19 20t21 28.5t11 41.5l96 483h187 l137 -371l139 371h176l94 -483q5 -28 11.5 -41.5t21.5 -28t19 -20.5h-293q3 3 16.5 12.5t21.5 17t15.5 22t7.5 30.5v6l-57 289l-141 -377h-144l-147 393l-60 -313v-2q0 -25 66 -78h-217z" />
<glyph unicode="&#x25fc;" horiz-adv-x="921" d="M0 0v922h922v-922h-922z" />
</font>
</defs>
</svg>
